<?xml version="1.0" encoding="UTF-8" standalone="no"?>
<!-- Created with matplotlib (https://matplotlib.org/) -->

<svg
   height="144pt"
   version="1.1"
   viewBox="0 0 648 144"
   width="648pt"
   id="svg247"
   sodipodi:docname="mean_individual_strength_Gtc.svg"
   inkscape:version="1.3.2 (091e20e, 2023-11-25, custom)"
   xmlns:inkscape="http://www.inkscape.org/namespaces/inkscape"
   xmlns:sodipodi="http://sodipodi.sourceforge.net/DTD/sodipodi-0.dtd"
   xmlns:xlink="http://www.w3.org/1999/xlink"
   xmlns="http://www.w3.org/2000/svg"
   xmlns:svg="http://www.w3.org/2000/svg"
   xmlns:rdf="http://www.w3.org/1999/02/22-rdf-syntax-ns#"
   xmlns:cc="http://creativecommons.org/ns#"
   xmlns:dc="http://purl.org/dc/elements/1.1/">
  <sodipodi:namedview
     id="namedview247"
     pagecolor="#ffffff"
     bordercolor="#000000"
     borderopacity="0.25"
     inkscape:showpageshadow="2"
     inkscape:pageopacity="0.0"
     inkscape:pagecheckerboard="0"
     inkscape:deskcolor="#d1d1d1"
     inkscape:document-units="pt"
     inkscape:zoom="1.4965278"
     inkscape:cx="432"
     inkscape:cy="95.888631"
     inkscape:window-width="1920"
     inkscape:window-height="1017"
     inkscape:window-x="-8"
     inkscape:window-y="-8"
     inkscape:window-maximized="1"
     inkscape:current-layer="svg247" />
  <metadata
     id="metadata1">
    <rdf:RDF>
      <cc:Work>
        <dc:type
           rdf:resource="http://purl.org/dc/dcmitype/StillImage" />
        <dc:date>2025-04-11T12:57:31.744898</dc:date>
        <dc:format>image/svg+xml</dc:format>
        <dc:creator>
          <cc:Agent>
            <dc:title>Matplotlib v3.3.2, https://matplotlib.org/</dc:title>
          </cc:Agent>
        </dc:creator>
      </cc:Work>
    </rdf:RDF>
  </metadata>
  <defs
     id="defs1">
    <style
       type="text/css"
       id="style1">*{stroke-linecap:butt;stroke-linejoin:round;}</style>
  </defs>
  <g
     id="patch_1">
    <path
       d="M 0,144 H 648 V 0 H 0 Z"
       style="fill:#ffffff"
       id="path1" />
  </g>
  <g
     id="patch_2"
     inkscape:export-filename="mean_individual_strength_Gtc.pdf"
     inkscape:export-xdpi="96"
     inkscape:export-ydpi="96">
    <path
       d="M 81,128.16 H 583.2 V 17.28 H 81 Z"
       style="fill:#ffffff"
       id="path2" />
  </g>
  <g
     id="matplotlib.axis_1">
    <g
       id="xtick_1">
      <g
         id="line2d_1">
        <defs
           id="defs2">
          <path
             d="M 0,0 V 3.5"
             id="m359a24ecd7"
             style="stroke:#000000;stroke-width:0.8" />
        </defs>
        <g
           id="g2">
          <use
             style="stroke:#000000;stroke-width:0.8"
             x="103.82727"
             xlink:href="#m359a24ecd7"
             y="128.16"
             id="use2" />
        </g>
      </g>
      <g
         id="text_1">
        <!-- $\mathdefault{0}$ -->
        <g
           transform="matrix(0.1,0,0,-0.1,101.33661,142.0785)"
           id="g3">
          <defs
             id="defs3">
            <path
               d="M 42,31.640625 C 42,37.75 41.90625,48.125 37.703125,56.109375 34,63.109375 28.09375,65.59375 22.90625,65.59375 18.09375,65.59375 12,63.40625 8.203125,56.203125 4.203125,48.71875 3.796875,39.4375 3.796875,31.640625 3.796875,25.953125 3.90625,17.28125 7,9.671875 11.296875,-0.609375 19,-2 22.90625,-2 27.5,-2 34.5,-0.109375 38.59375,9.375 41.59375,16.28125 42,24.359375 42,31.640625 Z M 22.90625,-0.40625 c -6.40625,0 -10.203125,5.484375 -11.609375,13.09375 -1.09375,5.875 -1.09375,14.46875 -1.09375,20.0625 0,7.6875 0,14.078125 1.296875,20.171875 C 13.40625,61.390625 19,64 22.90625,64 27,64 32.296875,61.296875 34.203125,53.125 35.5,47.4375 35.59375,40.734375 35.59375,32.75 c 0,-6.5 0,-14.484375 -1.1875,-20.375 -2.109375,-10.890625 -8,-12.78125 -11.5,-12.78125 z"
               id="CMR17-48" />
          </defs>
          <use
             transform="scale(0.996264)"
             xlink:href="#CMR17-48"
             id="use3" />
        </g>
      </g>
    </g>
    <g
       id="xtick_2">
      <g
         id="line2d_2">
        <g
           id="g4">
          <use
             style="stroke:#000000;stroke-width:0.8"
             x="122.08909"
             xlink:href="#m359a24ecd7"
             y="128.16"
             id="use4" />
        </g>
      </g>
      <g
         id="text_2">
        <!-- $\mathdefault{2}$ -->
        <g
           transform="matrix(0.1,0,0,-0.1,119.59842,142.0785)"
           id="g5">
          <defs
             id="defs4">
            <path
               d="M 41.703125,15.453125 H 39.90625 C 38.90625,8.375 38.09375,7.171875 37.703125,6.5625 37.203125,5.765625 30,5.765625 28.59375,5.765625 H 9.40625 C 13,9.671875 20,16.75 28.5,24.953125 34.59375,30.734375 41.703125,37.53125 41.703125,47.421875 41.703125,59.21875 32.296875,66 21.796875,66 10.796875,66 4.09375,56.3125 4.09375,47.34375 4.09375,43.4375 7,42.9375 8.203125,42.9375 c 1,0 4,0.609375 4,4.09375 0,3.078125 -2.609375,3.96875 -4,3.96875 C 7.59375,51 7,50.90625 6.59375,50.703125 8.5,59.21875 14.296875,63.40625 20.40625,63.40625 c 8.6875,0 14.390625,-6.890625 14.390625,-15.984375 C 34.796875,38.734375 29.703125,31.25 24,24.75 L 4.09375,2.28125 V 0 h 35.203125 z"
               id="CMR17-50" />
          </defs>
          <use
             transform="scale(0.996264)"
             xlink:href="#CMR17-50"
             id="use5" />
        </g>
      </g>
    </g>
    <g
       id="xtick_3">
      <g
         id="line2d_3">
        <g
           id="g6">
          <use
             style="stroke:#000000;stroke-width:0.8"
             x="140.35091"
             xlink:href="#m359a24ecd7"
             y="128.16"
             id="use6" />
        </g>
      </g>
      <g
         id="text_3">
        <!-- $\mathdefault{4}$ -->
        <g
           transform="matrix(0.1,0,0,-0.1,137.86024,142.0785)"
           id="g7">
          <defs
             id="defs6">
            <path
               d="M 33.59375,64.40625 C 33.59375,66.5 33.5,66.5 31.703125,66.5 L 2,19.59375 V 17 H 27.796875 V 7.140625 C 27.796875,3.5 27.59375,2.5 20.59375,2.5 H 18.703125 V 0 c 3.203125,0 8.59375,0 12,0 3.390625,0 8.796875,0 12,0 v 2.5 h -1.90625 c -7,0 -7.203125,1 -7.203125,4.640625 V 17 h 10.203125 v 2.59375 H 33.59375 Z m -5.5,-6.546875 V 19.59375 H 4 Z"
               id="CMR17-52" />
          </defs>
          <use
             transform="scale(0.996264)"
             xlink:href="#CMR17-52"
             id="use7" />
        </g>
      </g>
    </g>
    <g
       id="xtick_4">
      <g
         id="line2d_4">
        <g
           id="g8">
          <use
             style="stroke:#000000;stroke-width:0.8"
             x="158.61273"
             xlink:href="#m359a24ecd7"
             y="128.16"
             id="use8" />
        </g>
      </g>
      <g
         id="text_4">
        <!-- $\mathdefault{6}$ -->
        <g
           transform="matrix(0.1,0,0,-0.1,156.12206,142.0785)"
           id="g9">
          <defs
             id="defs8">
            <path
               d="m 10.59375,34 c 0,23.65625 11.203125,29 17.703125,29 C 30.40625,63 35.5,62.640625 37.5,59 c -1.59375,0 -4.59375,0 -4.59375,-3.484375 0,-2.6875 2.1875,-3.59375 3.59375,-3.59375 0.90625,0 3.59375,0.390625 3.59375,3.703125 0,6.15625 -5,9.671875 -11.890625,9.671875 C 16.296875,65.296875 3.796875,52.96875 3.796875,31 3.796875,3.953125 15.09375,-2 23.09375,-2 32.796875,-2 42,6.671875 42,20.046875 42,32.515625 33.90625,41.59375 23.703125,41.59375 17.59375,41.59375 13.09375,37.609375 10.59375,30.625 Z m 12.5,-33.609375 C 10.796875,0.390625 10.796875,18.75 10.796875,22.4375 10.796875,29.625 14.203125,40 23.5,40 c 1.703125,0 6.59375,0 9.90625,-6.875 1.796875,-3.90625 1.796875,-7.984375 1.796875,-12.984375 0,-5.390625 0,-9.359375 -2.109375,-13.359375 -2.1875,-4.109375 -5.390625,-6.390625 -10,-6.390625 z"
               id="CMR17-54" />
          </defs>
          <use
             transform="scale(0.996264)"
             xlink:href="#CMR17-54"
             id="use9" />
        </g>
      </g>
    </g>
    <g
       id="xtick_5">
      <g
         id="line2d_5">
        <g
           id="g10">
          <use
             style="stroke:#000000;stroke-width:0.8"
             x="176.87454"
             xlink:href="#m359a24ecd7"
             y="128.16"
             id="use10" />
        </g>
      </g>
      <g
         id="text_5">
        <!-- $\mathdefault{8}$ -->
        <g
           transform="matrix(0.1,0,0,-0.1,174.38388,142.0785)"
           id="g11">
          <defs
             id="defs10">
            <path
               d="M 27.203125,35.375 C 33.5,38.546875 39.90625,43.328125 39.90625,50.984375 c 0,9.03125 -8.8125,14.3125 -16.90625,14.3125 -9.09375,0 -17.09375,-6.5625 -17.09375,-15.609375 0,-2.484375 0.59375,-6.765625 4.5,-10.546875 1,-0.984375 5.1875,-3.96875 7.890625,-5.859375 -4.5,-2.296875 -15,-7.75 -15,-18.6875 C 3.296875,4.359375 13.09375,-2 22.796875,-2 33.5,-2 42.5,5.65625 42.5,15.78125 c 0,9.0625 -6.09375,13.234375 -10.09375,15.921875 z M 14.09375,44.09375 c -0.796875,0.5 -4.796875,3.578125 -4.796875,8.265625 0,6.0625 6.296875,10.640625 13.5,10.640625 C 30.703125,63 36.5,57.4375 36.5,50.96875 36.5,41.703125 26.09375,36.421875 25.59375,36.421875 c -0.09375,0 -0.1875,0 -1,0.609375 z M 32.5,23.734375 C 34,22.640625 38.796875,19.375 38.796875,13.296875 38.796875,5.953125 31.40625,0.390625 23,0.390625 c -9.09375,0 -16,6.453125 -16,14.296875 0,7.859375 6.09375,14.40625 13,17.5 z"
               id="CMR17-56" />
          </defs>
          <use
             transform="scale(0.996264)"
             xlink:href="#CMR17-56"
             id="use11" />
        </g>
      </g>
    </g>
    <g
       id="xtick_6">
      <g
         id="line2d_6">
        <g
           id="g12">
          <use
             style="stroke:#000000;stroke-width:0.8"
             x="195.13637"
             xlink:href="#m359a24ecd7"
             y="128.16"
             id="use12" />
        </g>
      </g>
      <g
         id="text_6">
        <!-- $\mathdefault{10}$ -->
        <g
           transform="matrix(0.1,0,0,-0.1,190.15503,142.0785)"
           id="g14">
          <defs
             id="defs12">
            <path
               d="M 26.59375,63.40625 C 26.59375,65.5 26.5,65.5 25.09375,65.5 21.203125,61.1875 15.296875,59.796875 9.703125,59.796875 c -0.296875,0 -0.796875,0 -0.90625,-0.296875 C 8.703125,59.296875 8.703125,59.09375 8.703125,57 11.796875,57 17,57.59375 21,59.984375 V 7.203125 C 21,3.6875 20.796875,2.5 12.203125,2.5 h -3 V 0 C 14,0 19,0 23.796875,0 28.59375,0 33.59375,0 38.40625,0 v 2.5 h -3 c -8.609375,0 -8.8125,1.09375 -8.8125,4.65625 z"
               id="CMR17-49" />
          </defs>
          <use
             transform="scale(0.996264)"
             xlink:href="#CMR17-49"
             id="use13" />
          <use
             transform="matrix(0.996264,0,0,0.996264,45.690477,0)"
             xlink:href="#CMR17-48"
             id="use14" />
        </g>
      </g>
    </g>
    <g
       id="xtick_7">
      <g
         id="line2d_7">
        <g
           id="g15">
          <use
             style="stroke:#000000;stroke-width:0.8"
             x="213.39818"
             xlink:href="#m359a24ecd7"
             y="128.16"
             id="use15" />
        </g>
      </g>
      <g
         id="text_7">
        <!-- $\mathdefault{12}$ -->
        <g
           transform="matrix(0.1,0,0,-0.1,208.41685,142.0785)"
           id="g17">
          <use
             transform="scale(0.996264)"
             xlink:href="#CMR17-49"
             id="use16" />
          <use
             transform="matrix(0.996264,0,0,0.996264,45.690477,0)"
             xlink:href="#CMR17-50"
             id="use17" />
        </g>
      </g>
    </g>
    <g
       id="xtick_8">
      <g
         id="line2d_8">
        <g
           id="g18">
          <use
             style="stroke:#000000;stroke-width:0.8"
             x="231.66"
             xlink:href="#m359a24ecd7"
             y="128.16"
             id="use18" />
        </g>
      </g>
      <g
         id="text_8">
        <!-- $\mathdefault{14}$ -->
        <g
           transform="matrix(0.1,0,0,-0.1,226.67866,142.0785)"
           id="g20">
          <use
             transform="scale(0.996264)"
             xlink:href="#CMR17-49"
             id="use19" />
          <use
             transform="matrix(0.996264,0,0,0.996264,45.690477,0)"
             xlink:href="#CMR17-52"
             id="use20" />
        </g>
      </g>
    </g>
    <g
       id="xtick_9">
      <g
         id="line2d_9">
        <g
           id="g21">
          <use
             style="stroke:#000000;stroke-width:0.8"
             x="249.92181"
             xlink:href="#m359a24ecd7"
             y="128.16"
             id="use21" />
        </g>
      </g>
      <g
         id="text_9">
        <!-- $\mathdefault{16}$ -->
        <g
           transform="matrix(0.1,0,0,-0.1,244.94048,142.0785)"
           id="g23">
          <use
             transform="scale(0.996264)"
             xlink:href="#CMR17-49"
             id="use22" />
          <use
             transform="matrix(0.996264,0,0,0.996264,45.690477,0)"
             xlink:href="#CMR17-54"
             id="use23" />
        </g>
      </g>
    </g>
    <g
       id="xtick_10">
      <g
         id="line2d_10">
        <g
           id="g24">
          <use
             style="stroke:#000000;stroke-width:0.8"
             x="268.18362"
             xlink:href="#m359a24ecd7"
             y="128.16"
             id="use24" />
        </g>
      </g>
      <g
         id="text_10">
        <!-- $\mathdefault{18}$ -->
        <g
           transform="matrix(0.1,0,0,-0.1,263.2023,142.0785)"
           id="g26">
          <use
             transform="scale(0.996264)"
             xlink:href="#CMR17-49"
             id="use25" />
          <use
             transform="matrix(0.996264,0,0,0.996264,45.690477,0)"
             xlink:href="#CMR17-56"
             id="use26" />
        </g>
      </g>
    </g>
    <g
       id="xtick_11">
      <g
         id="line2d_11">
        <g
           id="g27">
          <use
             style="stroke:#000000;stroke-width:0.8"
             x="286.44547"
             xlink:href="#m359a24ecd7"
             y="128.16"
             id="use27" />
        </g>
      </g>
      <g
         id="text_11">
        <!-- $\mathdefault{20}$ -->
        <g
           transform="matrix(0.1,0,0,-0.1,281.46412,142.0785)"
           id="g29">
          <use
             transform="scale(0.996264)"
             xlink:href="#CMR17-50"
             id="use28" />
          <use
             transform="matrix(0.996264,0,0,0.996264,45.690477,0)"
             xlink:href="#CMR17-48"
             id="use29" />
        </g>
      </g>
    </g>
    <g
       id="xtick_12">
      <g
         id="line2d_12">
        <g
           id="g30">
          <use
             style="stroke:#000000;stroke-width:0.8"
             x="304.70728"
             xlink:href="#m359a24ecd7"
             y="128.16"
             id="use30" />
        </g>
      </g>
      <g
         id="text_12">
        <!-- $\mathdefault{22}$ -->
        <g
           transform="matrix(0.1,0,0,-0.1,299.72594,142.0785)"
           id="g32">
          <use
             transform="scale(0.996264)"
             xlink:href="#CMR17-50"
             id="use31" />
          <use
             transform="matrix(0.996264,0,0,0.996264,45.690477,0)"
             xlink:href="#CMR17-50"
             id="use32" />
        </g>
      </g>
    </g>
    <g
       id="xtick_13">
      <g
         id="line2d_13">
        <g
           id="g33">
          <use
             style="stroke:#000000;stroke-width:0.8"
             x="322.96909"
             xlink:href="#m359a24ecd7"
             y="128.16"
             id="use33" />
        </g>
      </g>
      <g
         id="text_13">
        <!-- $\mathdefault{24}$ -->
        <g
           transform="matrix(0.1,0,0,-0.1,317.98776,142.0785)"
           id="g35">
          <use
             transform="scale(0.996264)"
             xlink:href="#CMR17-50"
             id="use34" />
          <use
             transform="matrix(0.996264,0,0,0.996264,45.690477,0)"
             xlink:href="#CMR17-52"
             id="use35" />
        </g>
      </g>
    </g>
    <g
       id="xtick_14">
      <g
         id="line2d_14">
        <g
           id="g36">
          <use
             style="stroke:#000000;stroke-width:0.8"
             x="341.2309"
             xlink:href="#m359a24ecd7"
             y="128.16"
             id="use36" />
        </g>
      </g>
      <g
         id="text_14">
        <!-- $\mathdefault{26}$ -->
        <g
           transform="matrix(0.1,0,0,-0.1,336.24957,142.0785)"
           id="g38">
          <use
             transform="scale(0.996264)"
             xlink:href="#CMR17-50"
             id="use37" />
          <use
             transform="matrix(0.996264,0,0,0.996264,45.690477,0)"
             xlink:href="#CMR17-54"
             id="use38" />
        </g>
      </g>
    </g>
    <g
       id="xtick_15">
      <g
         id="line2d_15">
        <g
           id="g39">
          <use
             style="stroke:#000000;stroke-width:0.8"
             x="359.49274"
             xlink:href="#m359a24ecd7"
             y="128.16"
             id="use39" />
        </g>
      </g>
      <g
         id="text_15">
        <!-- $\mathdefault{28}$ -->
        <g
           transform="matrix(0.1,0,0,-0.1,354.51139,142.0785)"
           id="g41">
          <use
             transform="scale(0.996264)"
             xlink:href="#CMR17-50"
             id="use40" />
          <use
             transform="matrix(0.996264,0,0,0.996264,45.690477,0)"
             xlink:href="#CMR17-56"
             id="use41" />
        </g>
      </g>
    </g>
    <g
       id="xtick_16">
      <g
         id="line2d_16">
        <g
           id="g42">
          <use
             style="stroke:#000000;stroke-width:0.8"
             x="377.75455"
             xlink:href="#m359a24ecd7"
             y="128.16"
             id="use42" />
        </g>
      </g>
      <g
         id="text_16">
        <!-- $\mathdefault{30}$ -->
        <g
           transform="matrix(0.1,0,0,-0.1,372.77321,142.0785)"
           id="g44">
          <defs
             id="defs42">
            <path
               d="M 22.09375,33.703125 C 31,33.703125 34.90625,25.96875 34.90625,17.03125 34.90625,5 28.5,0.390625 22.703125,0.390625 c -5.296875,0 -13.90625,2.640625 -16.609375,10.4375 0.5,-0.203125 1,-0.203125 1.5,-0.203125 2.40625,0 4.203125,1.59375 4.203125,4.1875 C 11.796875,17.703125 9.59375,19 7.59375,19 5.90625,19 3.296875,18.203125 3.296875,14.46875 3.296875,5.234375 12.296875,-2 22.90625,-2 34,-2 42.5,6.71875 42.5,16.953125 c 0,9.71875 -8,16.75 -17.5,17.84375 C 32.59375,36.375 39.90625,43.0625 39.90625,52.015625 39.90625,59.6875 32,65.296875 23,65.296875 c -9.09375,0 -17.09375,-5.46875 -17.09375,-13.28125 C 5.90625,48.59375 8.5,48 9.796875,48 c 2.109375,0 3.90625,1.296875 3.90625,3.890625 0,2.578125 -1.796875,3.875 -3.90625,3.875 -0.390625,0 -0.890625,0 -1.296875,-0.1875 C 11.40625,61.859375 19.296875,63 22.796875,63 c 3.5,0 10.109375,-1.671875 10.109375,-11.125 0,-2.765625 -0.40625,-7.6875 -3.8125,-12.03125 C 26.09375,36 22.703125,36 19.40625,35.6875 c -0.5,0 -2.8125,-0.234375 -3.203125,-0.234375 C 15.5,35.359375 15.09375,35.265625 15.09375,34.5 c 0,-0.703125 0.109375,-0.796875 2.109375,-0.796875 z"
               id="CMR17-51" />
          </defs>
          <use
             transform="scale(0.996264)"
             xlink:href="#CMR17-51"
             id="use43" />
          <use
             transform="matrix(0.996264,0,0,0.996264,45.690477,0)"
             xlink:href="#CMR17-48"
             id="use44" />
        </g>
      </g>
    </g>
    <g
       id="xtick_17">
      <g
         id="line2d_17">
        <g
           id="g45">
          <use
             style="stroke:#000000;stroke-width:0.8"
             x="396.01636"
             xlink:href="#m359a24ecd7"
             y="128.16"
             id="use45" />
        </g>
      </g>
      <g
         id="text_17">
        <!-- $\mathdefault{32}$ -->
        <g
           transform="matrix(0.1,0,0,-0.1,391.03503,142.0785)"
           id="g47">
          <use
             transform="scale(0.996264)"
             xlink:href="#CMR17-51"
             id="use46" />
          <use
             transform="matrix(0.996264,0,0,0.996264,45.690477,0)"
             xlink:href="#CMR17-50"
             id="use47" />
        </g>
      </g>
    </g>
    <g
       id="xtick_18">
      <g
         id="line2d_18">
        <g
           id="g48">
          <use
             style="stroke:#000000;stroke-width:0.8"
             x="414.27817"
             xlink:href="#m359a24ecd7"
             y="128.16"
             id="use48" />
        </g>
      </g>
      <g
         id="text_18">
        <!-- $\mathdefault{34}$ -->
        <g
           transform="matrix(0.1,0,0,-0.1,409.29685,142.0785)"
           id="g50">
          <use
             transform="scale(0.996264)"
             xlink:href="#CMR17-51"
             id="use49" />
          <use
             transform="matrix(0.996264,0,0,0.996264,45.690477,0)"
             xlink:href="#CMR17-52"
             id="use50" />
        </g>
      </g>
    </g>
    <g
       id="xtick_19">
      <g
         id="line2d_19">
        <g
           id="g51">
          <use
             style="stroke:#000000;stroke-width:0.8"
             x="432.54001"
             xlink:href="#m359a24ecd7"
             y="128.16"
             id="use51" />
        </g>
      </g>
      <g
         id="text_19">
        <!-- $\mathdefault{36}$ -->
        <g
           transform="matrix(0.1,0,0,-0.1,427.55867,142.0785)"
           id="g53">
          <use
             transform="scale(0.996264)"
             xlink:href="#CMR17-51"
             id="use52" />
          <use
             transform="matrix(0.996264,0,0,0.996264,45.690477,0)"
             xlink:href="#CMR17-54"
             id="use53" />
        </g>
      </g>
    </g>
    <g
       id="xtick_20">
      <g
         id="line2d_20">
        <g
           id="g54">
          <use
             style="stroke:#000000;stroke-width:0.8"
             x="450.80182"
             xlink:href="#m359a24ecd7"
             y="128.16"
             id="use54" />
        </g>
      </g>
      <g
         id="text_20">
        <!-- $\mathdefault{38}$ -->
        <g
           transform="matrix(0.1,0,0,-0.1,445.82048,142.0785)"
           id="g56">
          <use
             transform="scale(0.996264)"
             xlink:href="#CMR17-51"
             id="use55" />
          <use
             transform="matrix(0.996264,0,0,0.996264,45.690477,0)"
             xlink:href="#CMR17-56"
             id="use56" />
        </g>
      </g>
    </g>
    <g
       id="xtick_21">
      <g
         id="line2d_21">
        <g
           id="g57">
          <use
             style="stroke:#000000;stroke-width:0.8"
             x="469.06363"
             xlink:href="#m359a24ecd7"
             y="128.16"
             id="use57" />
        </g>
      </g>
      <g
         id="text_21">
        <!-- $\mathdefault{40}$ -->
        <g
           transform="matrix(0.1,0,0,-0.1,464.0823,142.0785)"
           id="g59">
          <use
             transform="scale(0.996264)"
             xlink:href="#CMR17-52"
             id="use58" />
          <use
             transform="matrix(0.996264,0,0,0.996264,45.690477,0)"
             xlink:href="#CMR17-48"
             id="use59" />
        </g>
      </g>
    </g>
    <g
       id="xtick_22">
      <g
         id="line2d_22">
        <g
           id="g60">
          <use
             style="stroke:#000000;stroke-width:0.8"
             x="487.32547"
             xlink:href="#m359a24ecd7"
             y="128.16"
             id="use60" />
        </g>
      </g>
      <g
         id="text_22">
        <!-- $\mathdefault{42}$ -->
        <g
           transform="matrix(0.1,0,0,-0.1,482.34412,142.0785)"
           id="g62">
          <use
             transform="scale(0.996264)"
             xlink:href="#CMR17-52"
             id="use61" />
          <use
             transform="matrix(0.996264,0,0,0.996264,45.690477,0)"
             xlink:href="#CMR17-50"
             id="use62" />
        </g>
      </g>
    </g>
    <g
       id="xtick_23">
      <g
         id="line2d_23">
        <g
           id="g63">
          <use
             style="stroke:#000000;stroke-width:0.8"
             x="505.58728"
             xlink:href="#m359a24ecd7"
             y="128.16"
             id="use63" />
        </g>
      </g>
      <g
         id="text_23">
        <!-- $\mathdefault{44}$ -->
        <g
           transform="matrix(0.1,0,0,-0.1,500.60594,142.0785)"
           id="g65">
          <use
             transform="scale(0.996264)"
             xlink:href="#CMR17-52"
             id="use64" />
          <use
             transform="matrix(0.996264,0,0,0.996264,45.690477,0)"
             xlink:href="#CMR17-52"
             id="use65" />
        </g>
      </g>
    </g>
    <g
       id="xtick_24">
      <g
         id="line2d_24">
        <g
           id="g66">
          <use
             style="stroke:#000000;stroke-width:0.8"
             x="523.84912"
             xlink:href="#m359a24ecd7"
             y="128.16"
             id="use66" />
        </g>
      </g>
      <g
         id="text_24">
        <!-- $\mathdefault{46}$ -->
        <g
           transform="matrix(0.1,0,0,-0.1,518.86776,142.0785)"
           id="g68">
          <use
             transform="scale(0.996264)"
             xlink:href="#CMR17-52"
             id="use67" />
          <use
             transform="matrix(0.996264,0,0,0.996264,45.690477,0)"
             xlink:href="#CMR17-54"
             id="use68" />
        </g>
      </g>
    </g>
    <g
       id="xtick_25">
      <g
         id="line2d_25">
        <g
           id="g69">
          <use
             style="stroke:#000000;stroke-width:0.8"
             x="542.1109"
             xlink:href="#m359a24ecd7"
             y="128.16"
             id="use69" />
        </g>
      </g>
      <g
         id="text_25">
        <!-- $\mathdefault{48}$ -->
        <g
           transform="matrix(0.1,0,0,-0.1,537.12957,142.0785)"
           id="g71">
          <use
             transform="scale(0.996264)"
             xlink:href="#CMR17-52"
             id="use70" />
          <use
             transform="matrix(0.996264,0,0,0.996264,45.690477,0)"
             xlink:href="#CMR17-56"
             id="use71" />
        </g>
      </g>
    </g>
    <g
       id="xtick_26">
      <g
         id="line2d_26">
        <g
           id="g72">
          <use
             style="stroke:#000000;stroke-width:0.8"
             x="560.37274"
             xlink:href="#m359a24ecd7"
             y="128.16"
             id="use72" />
        </g>
      </g>
      <g
         id="text_26">
        <!-- $\mathdefault{50}$ -->
        <g
           transform="matrix(0.1,0,0,-0.1,555.39139,142.0785)"
           id="g74">
          <defs
             id="defs72">
            <path
               d="M 11.40625,57.6875 C 12.40625,57.28125 16.5,56 20.703125,56 30,56 35.09375,61.109375 38,64.0625 38,64.953125 38,65.5 37.40625,65.5 c -0.109375,0 -0.3125,0 -1.109375,-0.453125 -3.5,-1.640625 -7.59375,-2.96875 -12.59375,-2.96875 -3,0 -7.5,0.40625 -12.40625,2.59375 -1.09375,0.5 -1.296875,0.5 -1.390625,0.5 -0.5,0 -0.609375,-0.109375 -0.609375,-2.09375 v -28.65625 c 0,-1.78125 0,-2.28125 1,-2.28125 0.5,0 0.703125,0.203125 1.203125,0.890625 3.203125,4.484375 7.59375,6.375 12.59375,6.375 3.5,0 11,-2.1875 11,-19.265625 0,-3.1875 0,-8.96875 -3,-13.5625 -2.5,-4.09375 -6.390625,-6.1875 -10.6875,-6.1875 C 14.796875,0.390625 8.09375,5 6.296875,12.71875 6.703125,12.609375 7.5,12.421875 7.90625,12.421875 c 1.296875,0 3.796875,0.703125 3.796875,3.796875 C 11.703125,18.90625 9.796875,20 7.90625,20 5.59375,20 4.09375,18.59375 4.09375,15.796875 4.09375,7.09375 11,-2 21.59375,-2 c 10.3125,0 20.109375,8.875 20.109375,21.75 0,11.96875 -7.796875,21.25 -17.5,21.25 -5.109375,0 -9.40625,-1.890625 -12.796875,-5.46875 z"
               id="CMR17-53" />
          </defs>
          <use
             transform="scale(0.996264)"
             xlink:href="#CMR17-53"
             id="use73" />
          <use
             transform="matrix(0.996264,0,0,0.996264,45.690477,0)"
             xlink:href="#CMR17-48"
             id="use74" />
        </g>
      </g>
    </g>
    <g
       id="text_27">
      <!-- $k$ -->
      <g
         transform="matrix(0.16,0,0,-0.16,328.04118,159.08526)"
         id="g75">
        <defs
           id="defs74">
          <path
             d="m 28.09375,66.515625 c 0.109375,0.40625 0.3125,1 0.3125,1.484375 0,1 -1,1 -1.203125,1 -0.109375,0 -3.703125,-0.359375 -5.5,-0.609375 -1.703125,0 -3.203125,-0.296875 -5,-0.296875 C 14.296875,67.890625 13.59375,67.796875 13.59375,66 c 0,-1 1,-1 2,-1 5.109375,0 5.109375,-0.890625 5.109375,-1.875 0,-0.390625 0,-0.59375 -0.5,-2.375 L 5.90625,3.875 C 5.5,2.375 5.5,2.1875 5.5,1.578125 5.5,-0.59375 7.203125,-1 8.203125,-1 11,-1 11.59375,1.203125 12.40625,4.296875 l 4.6875,18.65625 c 7.203125,-0.796875 11.5,-3.796875 11.5,-8.578125 0,-0.609375 0,-1 -0.296875,-2.5 C 27.90625,10.375 27.90625,9.1875 27.90625,8.6875 27.90625,2.890625 31.703125,-1 36.796875,-1 c 4.609375,0 7,4.1875 7.796875,5.59375 C 46.703125,8.28125 48,13.875 48,14.265625 c 0,0.5 -0.40625,0.90625 -1,0.90625 -0.90625,0 -1,-0.40625 -1.40625,-2 C 44.203125,7.984375 42.09375,1 37,1 c -2,0 -3.296875,1 -3.296875,4.78125 0,1.90625 0.390625,4.09375 0.796875,5.59375 0.40625,1.796875 0.40625,1.890625 0.40625,3.09375 0,5.890625 -5.3125,9.1875 -14.5,10.375 C 24,27.046875 27.59375,30.9375 29,32.4375 c 5.703125,6.375 9.59375,9.578125 14.203125,9.578125 2.296875,0 2.890625,-0.609375 3.59375,-1.203125 -3.703125,-0.40625 -5.09375,-3 -5.09375,-4.984375 0,-2.40625 1.890625,-3.203125 3.296875,-3.203125 2.703125,0 5.09375,2.296875 5.09375,5.5 0,2.890625 -2.296875,5.875 -6.796875,5.875 -5.5,0 -10,-3.890625 -17.09375,-11.875 -1,-1.1875 -4.703125,-4.984375 -8.40625,-6.375 z"
             id="CMMI12-107" />
        </defs>
        <use
           transform="scale(0.996264)"
           xlink:href="#CMMI12-107"
           id="use75" />
      </g>
    </g>
  </g>
  <g
     id="matplotlib.axis_2">
    <g
       id="ytick_1">
      <g
         id="line2d_27">
        <defs
           id="defs75">
          <path
             d="M 0,0 H -3.5"
             id="mdd983eab97"
             style="stroke:#000000;stroke-width:0.8" />
        </defs>
        <g
           id="g76">
          <use
             style="stroke:#000000;stroke-width:0.8"
             x="81"
             xlink:href="#mdd983eab97"
             y="123.12"
             id="use76" />
        </g>
      </g>
      <g
         id="text_28">
        <!-- $\mathdefault{0}$ -->
        <g
           transform="matrix(0.1,0,0,-0.1,69.018665,126.57925)"
           id="g77">
          <use
             transform="scale(0.996264)"
             xlink:href="#CMR17-48"
             id="use77" />
        </g>
      </g>
    </g>
    <g
       id="ytick_2">
      <g
         id="line2d_28">
        <g
           id="g78">
          <use
             style="stroke:#000000;stroke-width:0.8"
             x="81"
             xlink:href="#mdd983eab97"
             y="99.861893"
             id="use78" />
        </g>
      </g>
      <g
         id="text_29">
        <!-- $\mathdefault{10}$ -->
        <g
           transform="matrix(0.1,0,0,-0.1,64.037329,103.32114)"
           id="g80">
          <use
             transform="scale(0.996264)"
             xlink:href="#CMR17-49"
             id="use79" />
          <use
             transform="matrix(0.996264,0,0,0.996264,45.690477,0)"
             xlink:href="#CMR17-48"
             id="use80" />
        </g>
      </g>
    </g>
    <g
       id="ytick_3">
      <g
         id="line2d_29">
        <g
           id="g81">
          <use
             style="stroke:#000000;stroke-width:0.8"
             x="81"
             xlink:href="#mdd983eab97"
             y="76.603775"
             id="use81" />
        </g>
      </g>
      <g
         id="text_30">
        <!-- $\mathdefault{20}$ -->
        <g
           transform="matrix(0.1,0,0,-0.1,64.037329,80.063027)"
           id="g83">
          <use
             transform="scale(0.996264)"
             xlink:href="#CMR17-50"
             id="use82" />
          <use
             transform="matrix(0.996264,0,0,0.996264,45.690477,0)"
             xlink:href="#CMR17-48"
             id="use83" />
        </g>
      </g>
    </g>
    <g
       id="ytick_4">
      <g
         id="line2d_30">
        <g
           id="g84">
          <use
             style="stroke:#000000;stroke-width:0.8"
             x="81"
             xlink:href="#mdd983eab97"
             y="53.345665"
             id="use84" />
        </g>
      </g>
      <g
         id="text_31">
        <!-- $\mathdefault{30}$ -->
        <g
           transform="matrix(0.1,0,0,-0.1,64.037329,56.804915)"
           id="g86">
          <use
             transform="scale(0.996264)"
             xlink:href="#CMR17-51"
             id="use85" />
          <use
             transform="matrix(0.996264,0,0,0.996264,45.690477,0)"
             xlink:href="#CMR17-48"
             id="use86" />
        </g>
      </g>
    </g>
    <g
       id="ytick_5">
      <g
         id="line2d_31">
        <g
           id="g87">
          <use
             style="stroke:#000000;stroke-width:0.8"
             x="81"
             xlink:href="#mdd983eab97"
             y="30.087555"
             id="use87" />
        </g>
      </g>
      <g
         id="text_32">
        <!-- $\mathdefault{40}$ -->
        <g
           transform="matrix(0.1,0,0,-0.1,64.037329,33.546804)"
           id="g89">
          <use
             transform="scale(0.996264)"
             xlink:href="#CMR17-52"
             id="use88" />
          <use
             transform="matrix(0.996264,0,0,0.996264,45.690477,0)"
             xlink:href="#CMR17-48"
             id="use89" />
        </g>
      </g>
    </g>
  </g>
  <path
     clip-path="url(#p8613f95611)"
     d="M 103.82727,123.12 V 22.32"
     style="fill:none;stroke:#000000;stroke-width:2;stroke-dasharray:7.4, 3.2;stroke-dashoffset:0"
     id="path89" />
  <path
     clip-path="url(#p8613f95611)"
     d="M 112.95818,123.12 V 105.5686"
     style="fill:none;stroke:#000000;stroke-width:2;stroke-dasharray:7.4, 3.2;stroke-dashoffset:0"
     id="path90" />
  <path
     clip-path="url(#p8613f95611)"
     d="M 122.08909,123.12 V 102.21678"
     style="fill:none;stroke:#000000;stroke-width:2;stroke-dasharray:7.4, 3.2;stroke-dashoffset:0"
     id="path91" />
  <path
     clip-path="url(#p8613f95611)"
     d="M 131.22,123.12 V 111.41084"
     style="fill:none;stroke:#000000;stroke-width:2;stroke-dasharray:7.4, 3.2;stroke-dashoffset:0"
     id="path92" />
  <path
     clip-path="url(#p8613f95611)"
     d="M 140.35091,123.12 V 86.111873"
     style="fill:#000000;stroke:#ff00ff;stroke-width:2;stroke-dasharray:7.4, 3.2;stroke-dashoffset:0"
     id="path93" />
  <path
     clip-path="url(#p8613f95611)"
     d="M 149.48182,123.12 V 101.95872"
     style="fill:none;stroke:#000000;stroke-width:2;stroke-dasharray:7.4, 3.2;stroke-dashoffset:0"
     id="path94" />
  <path
     clip-path="url(#p8613f95611)"
     d="M 158.61273,123.12 V 110.27249"
     style="fill:none;stroke:#000000;stroke-width:2;stroke-dasharray:7.4, 3.2;stroke-dashoffset:0"
     id="path95" />
  <path
     clip-path="url(#p8613f95611)"
     d="m 167.74364,123.12 v -4.82131"
     style="fill:none;stroke:#000000;stroke-width:2;stroke-dasharray:7.4, 3.2;stroke-dashoffset:0"
     id="path96" />
  <path
     clip-path="url(#p8613f95611)"
     d="M 176.87454,123.12 V 111.72362"
     style="fill:none;stroke:#000000;stroke-width:2;stroke-dasharray:7.4, 3.2;stroke-dashoffset:0"
     id="path97" />
  <path
     clip-path="url(#p8613f95611)"
     d="M 186.00545,123.12 V 112.47731"
     style="fill:none;stroke:#000000;stroke-width:2;stroke-dasharray:7.4, 3.2;stroke-dashoffset:0"
     id="path98" />
  <path
     clip-path="url(#p8613f95611)"
     d="M 195.13636,123.12 V 110.85216"
     style="fill:none;stroke:#000000;stroke-width:2;stroke-dasharray:7.4, 3.2;stroke-dashoffset:0"
     id="path99" />
  <path
     clip-path="url(#p8613f95611)"
     d="m 204.26727,123.12 v -6.47006"
     style="fill:none;stroke:#000000;stroke-width:2;stroke-dasharray:7.4, 3.2;stroke-dashoffset:0"
     id="path100" />
  <path
     clip-path="url(#p8613f95611)"
     d="m 213.39818,123.12 v -5.23502"
     style="fill:none;stroke:#000000;stroke-width:2;stroke-dasharray:7.4, 3.2;stroke-dashoffset:0"
     id="path101" />
  <path
     clip-path="url(#p8613f95611)"
     d="M 222.52909,123.12 V 110.57272"
     style="fill:none;stroke:#000000;stroke-width:2;stroke-dasharray:7.4, 3.2;stroke-dashoffset:0"
     id="path102" />
  <path
     clip-path="url(#p8613f95611)"
     d="M 231.66,123.12 V 112.86335"
     style="fill:none;stroke:#000000;stroke-width:2;stroke-dasharray:7.4, 3.2;stroke-dashoffset:0"
     id="path103" />
  <path
     clip-path="url(#p8613f95611)"
     d="M 240.79091,123.12 V 109.14779"
     style="fill:none;stroke:#000000;stroke-width:2;stroke-dasharray:7.4, 3.2;stroke-dashoffset:0"
     id="path104" />
  <path
     clip-path="url(#p8613f95611)"
     d="m 249.92182,123.12 v -4.76407"
     style="fill:none;stroke:#000000;stroke-width:2;stroke-dasharray:7.4, 3.2;stroke-dashoffset:0"
     id="path105" />
  <path
     clip-path="url(#p8613f95611)"
     d="m 259.05273,123.12 v -7.06283"
     style="fill:none;stroke:#000000;stroke-width:2;stroke-dasharray:7.4, 3.2;stroke-dashoffset:0"
     id="path106" />
  <path
     clip-path="url(#p8613f95611)"
     d="m 268.18364,123.12 v -8.47412"
     style="fill:none;stroke:#000000;stroke-width:2;stroke-dasharray:7.4, 3.2;stroke-dashoffset:0"
     id="path107" />
  <path
     clip-path="url(#p8613f95611)"
     d="m 277.31454,123.12 v -7.12399"
     style="fill:none;stroke:#000000;stroke-width:2;stroke-dasharray:7.4, 3.2;stroke-dashoffset:0"
     id="path108" />
  <path
     clip-path="url(#p8613f95611)"
     d="m 286.44545,123.12 v -7.08069"
     style="fill:none;stroke:#000000;stroke-width:2;stroke-dasharray:7.4, 3.2;stroke-dashoffset:0"
     id="path109" />
  <path
     clip-path="url(#p8613f95611)"
     d="m 295.57636,123.12 v -4.93831"
     style="fill:none;stroke:#000000;stroke-width:2;stroke-dasharray:7.4, 3.2;stroke-dashoffset:0"
     id="path110" />
  <path
     clip-path="url(#p8613f95611)"
     d="m 304.70727,123.12 v -7.26666"
     style="fill:none;stroke:#000000;stroke-width:2;stroke-dasharray:7.4, 3.2;stroke-dashoffset:0"
     id="path111" />
  <path
     clip-path="url(#p8613f95611)"
     d="m 313.83818,123.12 v -5.28404"
     style="fill:none;stroke:#000000;stroke-width:2;stroke-dasharray:7.4, 3.2;stroke-dashoffset:0"
     id="path112" />
  <path
     clip-path="url(#p8613f95611)"
     d="m 322.96909,123.12 v -6.17886"
     style="fill:none;stroke:#000000;stroke-width:2;stroke-dasharray:7.4, 3.2;stroke-dashoffset:0"
     id="path113" />
  <path
     clip-path="url(#p8613f95611)"
     d="m 332.1,123.12 v -5.59129"
     style="fill:none;stroke:#000000;stroke-width:2;stroke-dasharray:7.4, 3.2;stroke-dashoffset:0"
     id="path114" />
  <path
     clip-path="url(#p8613f95611)"
     d="m 341.23091,123.12 v -6.96036"
     style="fill:none;stroke:#000000;stroke-width:2;stroke-dasharray:7.4, 3.2;stroke-dashoffset:0"
     id="path115" />
  <path
     clip-path="url(#p8613f95611)"
     d="m 350.36182,123.12 v -5.17969"
     style="fill:none;stroke:#000000;stroke-width:2;stroke-dasharray:7.4, 3.2;stroke-dashoffset:0"
     id="path116" />
  <path
     clip-path="url(#p8613f95611)"
     d="m 359.49273,123.12 v -7.64397"
     style="fill:none;stroke:#000000;stroke-width:2;stroke-dasharray:7.4, 3.2;stroke-dashoffset:0"
     id="path117" />
  <path
     clip-path="url(#p8613f95611)"
     d="m 368.62364,123.12 v -5.94084"
     style="fill:none;stroke:#000000;stroke-width:2;stroke-dasharray:7.4, 3.2;stroke-dashoffset:0"
     id="path118" />
  <path
     clip-path="url(#p8613f95611)"
     d="m 377.75454,123.12 v -5.55383"
     style="fill:none;stroke:#000000;stroke-width:2;stroke-dasharray:7.4, 3.2;stroke-dashoffset:0"
     id="path119" />
  <path
     clip-path="url(#p8613f95611)"
     d="m 386.88545,123.12 v -4.46387"
     style="fill:none;stroke:#000000;stroke-width:2;stroke-dasharray:7.4, 3.2;stroke-dashoffset:0"
     id="path120" />
  <path
     clip-path="url(#p8613f95611)"
     d="m 396.01636,123.12 v -5.41875"
     style="fill:none;stroke:#000000;stroke-width:2;stroke-dasharray:7.4, 3.2;stroke-dashoffset:0"
     id="path121" />
  <path
     clip-path="url(#p8613f95611)"
     d="m 405.14727,123.12 v -7.47097"
     style="fill:none;stroke:#000000;stroke-width:2;stroke-dasharray:7.4, 3.2;stroke-dashoffset:0"
     id="path122" />
  <path
     clip-path="url(#p8613f95611)"
     d="m 414.27818,123.12 v -9.15505"
     style="fill:none;stroke:#000000;stroke-width:2;stroke-dasharray:7.4, 3.2;stroke-dashoffset:0"
     id="path123" />
  <path
     clip-path="url(#p8613f95611)"
     d="m 423.40909,123.12 v -4.21627"
     style="fill:none;stroke:#000000;stroke-width:2;stroke-dasharray:7.4, 3.2;stroke-dashoffset:0"
     id="path124" />
  <path
     clip-path="url(#p8613f95611)"
     d="m 432.54,123.12 v -4.75278"
     style="fill:none;stroke:#000000;stroke-width:2;stroke-dasharray:7.4, 3.2;stroke-dashoffset:0"
     id="path125" />
  <path
     clip-path="url(#p8613f95611)"
     d="m 441.67091,123.12 v -7.47532"
     style="fill:none;stroke:#000000;stroke-width:2;stroke-dasharray:7.4, 3.2;stroke-dashoffset:0"
     id="path126" />
  <path
     clip-path="url(#p8613f95611)"
     d="m 450.80182,123.12 v -7.77572"
     style="fill:none;stroke:#000000;stroke-width:2;stroke-dasharray:7.4, 3.2;stroke-dashoffset:0"
     id="path127" />
  <path
     clip-path="url(#p8613f95611)"
     d="m 459.93273,123.12 v -7.29991"
     style="fill:none;stroke:#000000;stroke-width:2;stroke-dasharray:7.4, 3.2;stroke-dashoffset:0"
     id="path128" />
  <path
     clip-path="url(#p8613f95611)"
     d="m 469.06364,123.12 v -4.7832"
     style="fill:none;stroke:#000000;stroke-width:2;stroke-dasharray:7.4, 3.2;stroke-dashoffset:0"
     id="path129" />
  <path
     clip-path="url(#p8613f95611)"
     d="m 478.19454,123.12 v -7.47294"
     style="fill:none;stroke:#000000;stroke-width:2;stroke-dasharray:7.4, 3.2;stroke-dashoffset:0"
     id="path130" />
  <path
     clip-path="url(#p8613f95611)"
     d="m 487.32545,123.12 v -5.452"
     style="fill:none;stroke:#000000;stroke-width:2;stroke-dasharray:7.4, 3.2;stroke-dashoffset:0"
     id="path131" />
  <path
     clip-path="url(#p8613f95611)"
     d="m 496.45636,123.12 v -6.06326"
     style="fill:none;stroke:#000000;stroke-width:2;stroke-dasharray:7.4, 3.2;stroke-dashoffset:0"
     id="path132" />
  <path
     clip-path="url(#p8613f95611)"
     d="m 505.58727,123.12 v -7.01504"
     style="fill:none;stroke:#000000;stroke-width:2;stroke-dasharray:7.4, 3.2;stroke-dashoffset:0"
     id="path133" />
  <path
     clip-path="url(#p8613f95611)"
     d="m 514.71818,123.12 v -5.17707"
     style="fill:none;stroke:#000000;stroke-width:2;stroke-dasharray:7.4, 3.2;stroke-dashoffset:0"
     id="path134" />
  <path
     clip-path="url(#p8613f95611)"
     d="m 523.84909,123.12 v -5.046"
     style="fill:none;stroke:#000000;stroke-width:2;stroke-dasharray:7.4, 3.2;stroke-dashoffset:0"
     id="path135" />
  <path
     clip-path="url(#p8613f95611)"
     d="m 532.98,123.12 v -4.45341"
     style="fill:none;stroke:#000000;stroke-width:2;stroke-dasharray:7.4, 3.2;stroke-dashoffset:0"
     id="path136" />
  <path
     clip-path="url(#p8613f95611)"
     d="m 542.11091,123.12 v -5.35276"
     style="fill:none;stroke:#000000;stroke-width:2;stroke-dasharray:7.4, 3.2;stroke-dashoffset:0"
     id="path137" />
  <path
     clip-path="url(#p8613f95611)"
     d="m 551.24182,123.12 v -4.20341"
     style="fill:none;stroke:#000000;stroke-width:2;stroke-dasharray:7.4, 3.2;stroke-dashoffset:0"
     id="path138" />
  <path
     clip-path="url(#p8613f95611)"
     d="m 560.37273,123.12 v -4.89157"
     style="fill:none;stroke:#000000;stroke-width:2;stroke-dasharray:7.4, 3.2;stroke-dashoffset:0"
     id="path139" />
  <g
     id="line2d_32">
    <defs
       id="defs139">
      <path
         d="M 0,2 C 0.530406,2 1.03916,1.789267 1.414214,1.414214 1.789267,1.03916 2,0.530406 2,0 2,-0.530406 1.789267,-1.03916 1.414214,-1.414214 1.03916,-1.789267 0.530406,-2 0,-2 -0.530406,-2 -1.03916,-1.789267 -1.414214,-1.414214 -1.789267,-1.03916 -2,-0.530406 -2,0 -2,0.530406 -1.789267,1.03916 -1.414214,1.414214 -1.03916,1.789267 -0.530406,2 0,2 Z"
         id="mfcd011c7d3"
         style="stroke:#0000ff" />
    </defs>
    <g
       clip-path="url(#p8613f95611)"
       id="g189">
      <use
         style="fill:#0000ff;stroke:#0000ff"
         x="103.82727"
         xlink:href="#mfcd011c7d3"
         y="22.32"
         id="use139" />
      <use
         style="fill:#0000ff;stroke:#0000ff"
         x="112.95818"
         xlink:href="#mfcd011c7d3"
         y="105.5686"
         id="use140" />
      <use
         style="fill:#0000ff;stroke:#0000ff"
         x="122.08909"
         xlink:href="#mfcd011c7d3"
         y="102.21677"
         id="use141" />
      <use
         style="fill:#0000ff;stroke:#0000ff"
         x="131.22"
         xlink:href="#mfcd011c7d3"
         y="111.41084"
         id="use142" />
      <use
         style="fill:#0000ff;stroke:#0000ff"
         x="140.35091"
         xlink:href="#mfcd011c7d3"
         y="86.11187"
         id="use143" />
      <use
         style="fill:#0000ff;stroke:#0000ff"
         x="149.48181"
         xlink:href="#mfcd011c7d3"
         y="101.95872"
         id="use144" />
      <use
         style="fill:#0000ff;stroke:#0000ff"
         x="158.61273"
         xlink:href="#mfcd011c7d3"
         y="110.27248"
         id="use145" />
      <use
         style="fill:#0000ff;stroke:#0000ff"
         x="167.74364"
         xlink:href="#mfcd011c7d3"
         y="118.29869"
         id="use146" />
      <use
         style="fill:#0000ff;stroke:#0000ff"
         x="176.87454"
         xlink:href="#mfcd011c7d3"
         y="111.72362"
         id="use147" />
      <use
         style="fill:#0000ff;stroke:#0000ff"
         x="186.00545"
         xlink:href="#mfcd011c7d3"
         y="112.47731"
         id="use148" />
      <use
         style="fill:#0000ff;stroke:#0000ff"
         x="195.13637"
         xlink:href="#mfcd011c7d3"
         y="110.85216"
         id="use149" />
      <use
         style="fill:#0000ff;stroke:#0000ff"
         x="204.26727"
         xlink:href="#mfcd011c7d3"
         y="116.64994"
         id="use150" />
      <use
         style="fill:#0000ff;stroke:#0000ff"
         x="213.39818"
         xlink:href="#mfcd011c7d3"
         y="117.88498"
         id="use151" />
      <use
         style="fill:#0000ff;stroke:#0000ff"
         x="222.5291"
         xlink:href="#mfcd011c7d3"
         y="110.57272"
         id="use152" />
      <use
         style="fill:#0000ff;stroke:#0000ff"
         x="231.66"
         xlink:href="#mfcd011c7d3"
         y="112.86335"
         id="use153" />
      <use
         style="fill:#0000ff;stroke:#0000ff"
         x="240.79091"
         xlink:href="#mfcd011c7d3"
         y="109.1478"
         id="use154" />
      <use
         style="fill:#0000ff;stroke:#0000ff"
         x="249.92181"
         xlink:href="#mfcd011c7d3"
         y="118.35593"
         id="use155" />
      <use
         style="fill:#0000ff;stroke:#0000ff"
         x="259.05273"
         xlink:href="#mfcd011c7d3"
         y="116.05717"
         id="use156" />
      <use
         style="fill:#0000ff;stroke:#0000ff"
         x="268.18362"
         xlink:href="#mfcd011c7d3"
         y="114.64588"
         id="use157" />
      <use
         style="fill:#0000ff;stroke:#0000ff"
         x="277.31454"
         xlink:href="#mfcd011c7d3"
         y="115.99602"
         id="use158" />
      <use
         style="fill:#0000ff;stroke:#0000ff"
         x="286.44547"
         xlink:href="#mfcd011c7d3"
         y="116.03931"
         id="use159" />
      <use
         style="fill:#0000ff;stroke:#0000ff"
         x="295.57635"
         xlink:href="#mfcd011c7d3"
         y="118.18169"
         id="use160" />
      <use
         style="fill:#0000ff;stroke:#0000ff"
         x="304.70728"
         xlink:href="#mfcd011c7d3"
         y="115.85334"
         id="use161" />
      <use
         style="fill:#0000ff;stroke:#0000ff"
         x="313.8382"
         xlink:href="#mfcd011c7d3"
         y="117.83596"
         id="use162" />
      <use
         style="fill:#0000ff;stroke:#0000ff"
         x="322.96909"
         xlink:href="#mfcd011c7d3"
         y="116.94114"
         id="use163" />
      <use
         style="fill:#0000ff;stroke:#0000ff"
         x="332.10001"
         xlink:href="#mfcd011c7d3"
         y="117.52871"
         id="use164" />
      <use
         style="fill:#0000ff;stroke:#0000ff"
         x="341.2309"
         xlink:href="#mfcd011c7d3"
         y="116.15964"
         id="use165" />
      <use
         style="fill:#0000ff;stroke:#0000ff"
         x="350.36182"
         xlink:href="#mfcd011c7d3"
         y="117.94031"
         id="use166" />
      <use
         style="fill:#0000ff;stroke:#0000ff"
         x="359.49274"
         xlink:href="#mfcd011c7d3"
         y="115.47603"
         id="use167" />
      <use
         style="fill:#0000ff;stroke:#0000ff"
         x="368.62363"
         xlink:href="#mfcd011c7d3"
         y="117.17916"
         id="use168" />
      <use
         style="fill:#0000ff;stroke:#0000ff"
         x="377.75455"
         xlink:href="#mfcd011c7d3"
         y="117.56617"
         id="use169" />
      <use
         style="fill:#0000ff;stroke:#0000ff"
         x="386.88547"
         xlink:href="#mfcd011c7d3"
         y="118.65613"
         id="use170" />
      <use
         style="fill:#0000ff;stroke:#0000ff"
         x="396.01636"
         xlink:href="#mfcd011c7d3"
         y="117.70125"
         id="use171" />
      <use
         style="fill:#0000ff;stroke:#0000ff"
         x="405.14728"
         xlink:href="#mfcd011c7d3"
         y="115.64902"
         id="use172" />
      <use
         style="fill:#0000ff;stroke:#0000ff"
         x="414.27817"
         xlink:href="#mfcd011c7d3"
         y="113.96494"
         id="use173" />
      <use
         style="fill:#0000ff;stroke:#0000ff"
         x="423.40909"
         xlink:href="#mfcd011c7d3"
         y="118.90373"
         id="use174" />
      <use
         style="fill:#0000ff;stroke:#0000ff"
         x="432.54001"
         xlink:href="#mfcd011c7d3"
         y="118.36723"
         id="use175" />
      <use
         style="fill:#0000ff;stroke:#0000ff"
         x="441.6709"
         xlink:href="#mfcd011c7d3"
         y="115.64468"
         id="use176" />
      <use
         style="fill:#0000ff;stroke:#0000ff"
         x="450.80182"
         xlink:href="#mfcd011c7d3"
         y="115.34428"
         id="use177" />
      <use
         style="fill:#0000ff;stroke:#0000ff"
         x="459.93274"
         xlink:href="#mfcd011c7d3"
         y="115.82009"
         id="use178" />
      <use
         style="fill:#0000ff;stroke:#0000ff"
         x="469.06363"
         xlink:href="#mfcd011c7d3"
         y="118.3368"
         id="use179" />
      <use
         style="fill:#0000ff;stroke:#0000ff"
         x="478.19455"
         xlink:href="#mfcd011c7d3"
         y="115.64706"
         id="use180" />
      <use
         style="fill:#0000ff;stroke:#0000ff"
         x="487.32547"
         xlink:href="#mfcd011c7d3"
         y="117.668"
         id="use181" />
      <use
         style="fill:#0000ff;stroke:#0000ff"
         x="496.45636"
         xlink:href="#mfcd011c7d3"
         y="117.05674"
         id="use182" />
      <use
         style="fill:#0000ff;stroke:#0000ff"
         x="505.58728"
         xlink:href="#mfcd011c7d3"
         y="116.10496"
         id="use183" />
      <use
         style="fill:#0000ff;stroke:#0000ff"
         x="514.7182"
         xlink:href="#mfcd011c7d3"
         y="117.94292"
         id="use184" />
      <use
         style="fill:#0000ff;stroke:#0000ff"
         x="523.84912"
         xlink:href="#mfcd011c7d3"
         y="118.07401"
         id="use185" />
      <use
         style="fill:#0000ff;stroke:#0000ff"
         x="532.97998"
         xlink:href="#mfcd011c7d3"
         y="118.66659"
         id="use186" />
      <use
         style="fill:#0000ff;stroke:#0000ff"
         x="542.1109"
         xlink:href="#mfcd011c7d3"
         y="117.76723"
         id="use187" />
      <use
         style="fill:#0000ff;stroke:#0000ff"
         x="551.24182"
         xlink:href="#mfcd011c7d3"
         y="118.91659"
         id="use188" />
      <use
         style="fill:#0000ff;stroke:#0000ff"
         x="560.37274"
         xlink:href="#mfcd011c7d3"
         y="118.22843"
         id="use189" />
    </g>
  </g>
  <g
     id="line2d_33">
    <path
       clip-path="url(#p8613f95611)"
       d="M 103.82727,123.12 H 560.37273"
       style="fill:none;stroke:#d62728;stroke-width:1.5;stroke-linecap:square"
       id="path189" />
  </g>
  <g
     id="patch_3">
    <path
       d="M 81,128.16 V 17.28"
       style="fill:none;stroke:#000000;stroke-width:0.8;stroke-linecap:square;stroke-linejoin:miter"
       id="path190" />
  </g>
  <g
     id="patch_4">
    <path
       d="M 583.2,128.16 V 17.28"
       style="fill:none;stroke:#000000;stroke-width:0.8;stroke-linecap:square;stroke-linejoin:miter"
       id="path191" />
  </g>
  <g
     id="patch_5">
    <path
       d="M 81,128.16 H 583.2"
       style="fill:none;stroke:#000000;stroke-width:0.8;stroke-linecap:square;stroke-linejoin:miter"
       id="path192" />
  </g>
  <g
     id="patch_6">
    <path
       d="M 81,17.28 H 583.2"
       style="fill:none;stroke:#000000;stroke-width:0.8;stroke-linecap:square;stroke-linejoin:miter"
       id="path193" />
  </g>
  <g
     id="text_33">
    <!-- Strength of the brain hypergraph modes $\mathcal{G}_{TC}^{(k)}=\{\mathcal{V},\left(\widehat{\mathbf{T}}_s^{abs}\right)^{(k)}\}$ -->
    <g
       transform="matrix(0.18,0,0,-0.18,103.96462,5.623547)"
       id="g247">
      <defs
         id="defs193">
        <path
           d="m 43.796875,67.03125 c 0,1.78125 -0.09375,1.890625 -0.703125,1.890625 -0.59375,0 -0.796875,-0.40625 -1.1875,-1.296875 l -3,-6.578125 C 35.09375,66.515625 29.296875,69 23,69 12.796875,69 4.59375,60.953125 4.59375,50.828125 4.59375,47.75 5.296875,43.375 8.703125,39.21875 c 3.703125,-4.5625 7.203125,-5.359375 15.203125,-7.453125 3,-0.796875 8,-2.09375 9,-2.484375 5.6875,-2.375 8.6875,-8.328125 8.6875,-13.890625 C 41.59375,8.234375 36.5,0.59375 27.796875,0.59375 17.09375,0.59375 7.09375,6.546875 6.40625,20.484375 c -0.109375,1.59375 -0.203125,1.6875 -0.90625,1.6875 -0.796875,0 -0.90625,-0.09375 -0.90625,-2.09375 v -20.09375 c 0,-1.78125 0.109375,-1.890625 0.703125,-1.890625 0.703125,0 0.90625,0.5 2.296875,3.59375 0.109375,0.296875 0.109375,0.5 2,4.265625 C 14.59375,-0.609375 23,-2 27.796875,-2 c 10.90625,0 18.609375,9.046875 18.609375,19.5625 0,5.15625 -1.90625,9.125 -3,10.921875 -4.203125,6.359375 -8.703125,7.546875 -13.5,8.734375 -0.703125,0.3125 -0.90625,0.3125 -6.5,1.6875 C 18,40.296875 15.703125,41 13.203125,43.6875 10.40625,46.75 9.40625,49.9375 9.40625,53.109375 c 0,6.453125 5.1875,13.5 13.6875,13.5 10.609375,0 17.203125,-7.453125 18.703125,-19.84375 C 42.09375,44.96875 42.203125,44.875 42.90625,44.875 c 0.890625,0 0.890625,0.296875 0.890625,1.984375 z"
           id="CMR17-83" />
        <path
           d="m 15.09375,40 h 14 v 2.578125 h -14 V 61 H 13.296875 C 13.09375,50.703125 9.59375,41.6875 1.09375,41.6875 V 40 H 9.796875 V 12.046875 C 9.796875,10.15625 9.796875,-1 21.40625,-1 c 5.890625,0 9.296875,5.78125 9.296875,13.140625 V 17.8125 H 28.90625 V 12.234375 C 28.90625,5.375 26.203125,0.796875 22,0.796875 c -2.90625,0 -6.90625,1.984375 -6.90625,11.046875 z"
           id="CMR17-116" />
        <path
           d="M 15,23.390625 C 15,33 19.09375,42 26.59375,42 27.296875,42 28,41.90625 28.703125,41.59375 c 0,0 -2.203125,-0.703125 -2.203125,-3.28125 0,-2.40625 1.90625,-3.40625 3.40625,-3.40625 1.1875,0 3.390625,0.703125 3.390625,3.5 0,3.203125 -3.203125,5.1875 -6.59375,5.1875 -7.609375,0 -10.90625,-7.390625 -11.90625,-10.890625 h -0.09375 V 43.59375 L 3.09375,42.5 V 39.90625 C 9,39.90625 9.90625,39.296875 9.90625,34.5 V 6.6875 C 9.90625,2.875 9.5,2.390625 3.09375,2.390625 v -2.59375 C 5.5,0 10.09375,0 12.703125,0 c 2.890625,0 8,0 10.703125,-0.203125 v 2.59375 C 16.203125,2.390625 15,2.390625 15,6.875 Z"
           id="CMR17-114" />
        <path
           d="M 38.09375,23 C 38.5,23.40625 38.5,23.609375 38.5,24.625 38.5,34.96875 33.09375,44 21.703125,44 c -10.609375,0 -19,-10.109375 -19,-22.390625 0,-13 9.5,-22.609375 20.09375,-22.609375 C 34,-1 38.40625,9.484375 38.40625,11.5625 c 0,0.6875 -0.609375,0.6875 -0.8125,0.6875 -0.6875,0 -0.796875,-0.203125 -1.1875,-1.375 C 34.203125,4.140625 28.703125,0.796875 23.5,0.796875 19.203125,0.796875 14.90625,3.171875 12.203125,7.5 9.09375,12.546875 9.09375,18.375 9.09375,23 Z M 9.203125,24.5 c 0.703125,14.640625 8.390625,17.90625 12.390625,17.90625 6.8125,0 11.40625,-6.515625 11.5,-17.90625 z"
           id="CMR17-101" />
        <path
           d="m 41.5,30.203125 c 0,5.09375 -1,13.390625 -12.796875,13.390625 -7.90625,0 -12,-6.09375 -13.5,-10.09375 H 15.09375 V 43.59375 L 3.296875,42.5 v -2.59375 c 5.90625,0 6.796875,-0.609375 6.796875,-5.40625 V 6.6875 c 0,-3.8125 -0.390625,-4.296875 -6.796875,-4.296875 v -2.59375 C 5.703125,0 10.09375,0 12.703125,0 c 2.59375,0 7.09375,0 9.5,-0.203125 v 2.59375 c -6.40625,0 -6.796875,0.390625 -6.796875,4.296875 V 25.90625 C 15.40625,35.109375 21,42 28,42 c 7.40625,0 8.203125,-6.59375 8.203125,-11.40625 V 6.6875 c 0,-3.8125 -0.40625,-4.296875 -6.796875,-4.296875 v -2.59375 C 31.796875,0 36.203125,0 38.796875,0 c 2.609375,0 7.109375,0 9.5,-0.203125 v 2.59375 C 41.90625,2.390625 41.5,2.78125 41.5,6.6875 Z"
           id="CMR17-110" />
        <path
           d="M 11.09375,18.1875 C 13,16.6875 16.296875,15 20.296875,15 28.203125,15 35,21.203125 35,29.5 35,32.09375 34.203125,36.09375 31.203125,39.203125 34,42.0625 38.09375,43 40.40625,43 c 0.390625,0 1,0 1.5,-0.28125 -0.40625,-0.09375 -1.3125,-0.484375 -1.3125,-2.015625 0,-1.21875 0.90625,-2.09375 2.203125,-2.09375 1.5,0 2.296875,0.96875 2.296875,2.234375 0,1.828125 -1.5,3.75 -4.6875,3.75 -4,0 -7.5,-1.8125 -10.3125,-4.28125 C 27.09375,43.015625 23.5,44 20.296875,44 12.40625,44 5.59375,37.796875 5.59375,29.5 c 0,-5.71875 3.3125,-9.3125 4.3125,-10.3125 -3,-3.5 -3,-7.578125 -3,-8.078125 0,-2.59375 1,-6.390625 4.390625,-8.484375 C 6.09375,1.328125 2,-2.640625 2,-7.59375 2,-14.734375 11.5,-20 22.90625,-20 c 11,0 20.890625,5.0625 20.890625,12.515625 C 43.796875,6 29,6 21.296875,6 19,6 14.90625,6 14.40625,6.109375 c -3.109375,0.5 -5.203125,3.296875 -5.203125,6.796875 0,0.890625 0,3.09375 1.890625,5.28125 z m 9.203125,-1.5 C 11.5,16.6875 11.5,27.5 11.5,29.515625 11.5,31.5 11.5,42.3125 20.296875,42.3125 c 8.796875,0 8.796875,-10.8125 8.796875,-12.796875 0,-2.015625 0,-12.828125 -8.796875,-12.828125 z m 2.609375,-34.984375 c -10,0 -16.90625,5.25 -16.90625,10.703125 0,3.078125 1.703125,5.953125 3.90625,7.53125 2.5,1.6875 3.5,1.6875 10.296875,1.6875 8.203125,0 19.59375,0 19.59375,-9.21875 0,-5.453125 -6.890625,-10.703125 -16.890625,-10.703125 z"
           id="CMR17-103" />
        <path
           d="m 41.5,30.203125 c 0,5.09375 -1,13.390625 -12.796875,13.390625 C 20.5,43.59375 16.5,37 15.296875,33.703125 h -0.09375 V 68.6875 L 3.296875,67.59375 V 65 c 5.90625,0 6.796875,-0.59375 6.796875,-5.359375 V 6.65625 c 0,-3.78125 -0.390625,-4.265625 -6.796875,-4.265625 v -2.59375 C 5.703125,0 10.09375,0 12.703125,0 c 2.59375,0 7.09375,0 9.5,-0.203125 v 2.59375 c -6.40625,0 -6.796875,0.390625 -6.796875,4.296875 V 25.90625 C 15.40625,35.109375 21,42 28,42 c 7.40625,0 8.203125,-6.59375 8.203125,-11.40625 V 6.6875 c 0,-3.8125 -0.40625,-4.296875 -6.796875,-4.296875 v -2.59375 C 31.796875,0 36.203125,0 38.796875,0 c 2.609375,0 7.109375,0 9.5,-0.203125 v 2.59375 C 41.90625,2.390625 41.5,2.78125 41.5,6.6875 Z"
           id="CMR17-104" />
        <path
           d="M 43.09375,21.1875 C 43.09375,34 33.796875,44 22.90625,44 12,44 2.703125,34 2.703125,21.1875 2.703125,8.609375 12,-1 22.90625,-1 c 10.890625,0 20.1875,9.609375 20.1875,22.1875 z M 22.90625,0.796875 c -4.703125,0 -8.703125,2.796875 -11,6.703125 -2.5,4.484375 -2.8125,10.09375 -2.8125,14.5 0,4.203125 0.203125,9.40625 2.8125,13.90625 2,3.296875 5.890625,6.5 11,6.5 4.5,0 8.296875,-2.5 10.6875,-6 C 36.703125,31.703125 36.703125,25.109375 36.703125,22 c 0,-3.90625 -0.203125,-9.890625 -2.90625,-14.703125 -2.796875,-4.59375 -7.09375,-6.5 -10.890625,-6.5 z"
           id="CMR17-111" />
        <path
           d="m 15.296875,40 h 11.40625 v 2.578125 H 15.09375 V 54.59375 c 0,8.25 4.203125,13.40625 8.5,13.40625 1.3125,0 2.8125,-0.390625 3.8125,-1.09375 C 26.59375,66.703125 24.5,66.015625 24.5,63.546875 c 0,-2.59375 2,-3.390625 3.40625,-3.390625 1.390625,0 3.390625,0.796875 3.390625,3.390625 0,3.765625 -3.59375,6.046875 -7.59375,6.046875 -5.703125,0 -13.5,-4.65625 -13.5,-15.203125 v -11.8125 h -8 V 40 h 8 V 6.671875 c 0,-3.796875 -0.40625,-4.28125 -6.796875,-4.28125 v -2.59375 C 5.796875,0 10.40625,0 13,0 c 2.90625,0 8,0 10.703125,-0.203125 v 2.59375 c -7.203125,0 -8.40625,0 -8.40625,4.46875 z"
           id="CMR17-102" />
        <path
           d="M 15,68.6875 3.09375,67.59375 V 65 C 9,65 9.90625,64.40625 9.90625,59.640625 v -59.84375 h 1.796875 l 2.890625,7.09375 C 17.5,2.203125 21.796875,-1 27.59375,-1 c 10,0 20.109375,8.8125 20.109375,22.40625 0,12.78125 -9,22.1875 -19.109375,22.1875 C 22.40625,43.59375 18,40.296875 15,36.40625 Z m 0.203125,-37.375 c 0,1.78125 0,2.09375 1.390625,4.1875 C 20.5,41.515625 26.09375,42 28,42 31,42 41.296875,40.390625 41.296875,21.5 41.296875,1.6875 29.5,0.59375 27.09375,0.59375 c -3.09375,0 -7.59375,1.1875 -10.796875,7 -1.09375,1.90625 -1.09375,2.109375 -1.09375,3.890625 z"
           id="CMR17-98" />
        <path
           d="M 36,25.828125 C 36,32.375 36,35.84375 31.796875,39.734375 28.09375,43 23.796875,44 20.40625,44 12.5,44 6.796875,37.609375 6.796875,30.796875 6.796875,27 9.796875,27 10.40625,27 11.703125,27 14,27.78125 14,30.53125 14,33 12.09375,34.078125 10.40625,34.078125 10,34.078125 9.5,33.96875 9.203125,33.875 c 2.09375,6.625 7.5,8.53125 11,8.53125 5,0 10.5,-4.453125 10.5,-12.953125 V 25 c -5.90625,0 -13,-0.796875 -18.609375,-3.796875 C 5.796875,17.703125 4,12.703125 4,8.90625 4,1.203125 13,-1 18.296875,-1 c 5.5,0 10.609375,3.171875 12.796875,8.984375 0.203125,-4.34375 3,-8.265625 7.40625,-8.265625 2.09375,0 7.40625,1.375 7.40625,9.140625 V 14.375 h -1.8125 V 8.78125 c 0,-6 -2.6875,-6.78125 -4,-6.78125 C 36,2 36,7.15625 36,11.53125 Z M 30.703125,13.59375 c 0,-8.640625 -6.203125,-13 -11.703125,-13 -5,0 -8.90625,3.703125 -8.90625,8.3125 0,2.984375 1.3125,8.28125 7.109375,11.484375 C 22,23.09375 27.5,23.5 30.703125,23.5 Z"
           id="CMR17-97" />
        <path
           d="m 15.5,61.078125 c 0,2.1875 -1.796875,4.078125 -4.09375,4.078125 -2.203125,0 -4.109375,-1.78125 -4.109375,-4.078125 C 7.296875,58.890625 9.09375,57 11.40625,57 13.59375,57 15.5,58.796875 15.5,61.078125 Z M 3.796875,42.28125 v -2.578125 c 5.609375,0 6.40625,-0.609375 6.40625,-5.375 V 6.671875 c 0,-3.796875 -0.40625,-4.28125 -6.796875,-4.28125 v -2.59375 C 5.796875,0 10.09375,0 12.59375,0 c 2.40625,0 6.5,0 8.8125,-0.203125 v 2.59375 c -5.90625,0 -6.109375,0.59375 -6.109375,4.171875 V 43.375 Z"
           id="CMR17-105" />
        <path
           d="m 39,34.328125 c 2.5,6.078125 7,6.078125 8.40625,6.078125 V 43 C 45.5,43 43,43 41.09375,43 39,43 35.703125,43 33.703125,43.09375 V 40.5 C 37.5,40.203125 37.59375,37.40625 37.59375,36.609375 c 0,-0.984375 -0.1875,-1.484375 -0.6875,-2.6875 L 26,7.015625 14.09375,36.03125 c -0.5,1.1875 -0.5,1.875 -0.5,1.984375 0,2.1875 2.3125,2.390625 4.703125,2.390625 v 2.6875 C 15.90625,43 11.59375,43 9.09375,43 6.40625,43 3.203125,43 1,43.09375 v -2.6875 c 5.40625,0 6,-0.5 7.296875,-3.6875 L 23.203125,0.234375 c -4.5,-11.765625 -7.109375,-18.640625 -13.40625,-18.640625 -1.09375,0 -3.59375,0.296875 -5.390625,2.09375 2.296875,0.203125 3.296875,1.59375 3.296875,3.296875 0,1.6875 -1.203125,3.1875 -3.203125,3.1875 -2.203125,0 -3.296875,-1.5 -3.296875,-3.296875 0,-3.984375 4.09375,-6.875 8.59375,-6.875 5.796875,0 9.40625,5.59375 11.40625,10.5625 z"
           id="CMR17-121" />
        <path
           d="m 22,-16.609375 c -6.40625,0 -6.796875,0.40625 -6.796875,4.28125 V 6.28125 c 2.890625,-4.1875 7.09375,-6.875 12.390625,-6.875 10,0 20.109375,8.765625 20.109375,22.28125 0,12.546875 -8.703125,22.09375 -19,22.09375 -6,0 -10.90625,-3.28125 -13.703125,-7.25 v 7.25 L 3.09375,42.6875 v -2.578125 c 5.90625,0 6.8125,-0.609375 6.8125,-5.375 v -47.0625 c 0,-3.78125 -0.40625,-4.28125 -6.8125,-4.28125 V -19.1875 C 5.5,-19 9.90625,-19 12.5,-19 c 2.59375,0 7.09375,0 9.5,-0.1875 z M 15.203125,31.4375 c 0,1.40625 0,3.484375 3.890625,7.171875 C 19.59375,39.015625 23,42 28,42 35.296875,42 41.296875,32.9375 41.296875,21.59375 41.296875,10.25 34.90625,1 27,1 23.40625,1 19.5,2.6875 16.5,7.375 15.203125,9.5625 15.203125,10.15625 15.203125,11.75 Z"
           id="CMR17-112" />
        <path
           d="m 67.59375,30.203125 c 0,4.984375 -0.890625,13.390625 -12.796875,13.390625 C 48,43.59375 43.296875,39 41.5,33.609375 h -0.09375 c -1.203125,8.203125 -7.109375,9.984375 -12.703125,9.984375 -7.90625,0 -12,-6.09375 -13.5,-10.09375 H 15.09375 V 43.59375 L 3.296875,42.5 v -2.59375 c 5.90625,0 6.796875,-0.609375 6.796875,-5.40625 V 6.6875 c 0,-3.8125 -0.390625,-4.296875 -6.796875,-4.296875 v -2.59375 C 5.703125,0 10.09375,0 12.703125,0 c 2.59375,0 7.09375,0 9.5,-0.203125 v 2.59375 c -6.40625,0 -6.796875,0.390625 -6.796875,4.296875 V 25.90625 C 15.40625,35.109375 21,42 28,42 c 7.40625,0 8.203125,-6.59375 8.203125,-11.40625 V 6.6875 c 0,-3.8125 -0.40625,-4.296875 -6.796875,-4.296875 v -2.59375 C 31.796875,0 36.203125,0 38.796875,0 c 2.609375,0 7.109375,0 9.5,-0.203125 v 2.59375 C 41.90625,2.390625 41.5,2.78125 41.5,6.6875 V 25.90625 C 41.5,35.109375 47.09375,42 54.09375,42 61.5,42 62.296875,35.40625 62.296875,30.59375 V 6.6875 C 62.296875,2.875 61.90625,2.390625 55.5,2.390625 v -2.59375 C 57.90625,0 62.296875,0 64.90625,0 67.5,0 72,0 74.40625,-0.203125 v 2.59375 c -6.40625,0 -6.8125,0.390625 -6.8125,4.296875 z"
           id="CMR17-109" />
        <path
           d="M 29.203125,67.59375 V 65 C 35.09375,65 36,64.40625 36,59.6875 V 36.640625 c -0.40625,0.5 -4.5,6.953125 -12.59375,6.953125 C 13.203125,43.59375 3.296875,34.5 3.296875,21.3125 3.296875,8.203125 12.59375,-1 22.40625,-1 c 8.5,0 12.890625,6.265625 13.390625,6.9375 V -0.984375 H 47.90625 V 2 C 42,2 41.09375,2.59375 41.09375,7.390625 V 68.6875 Z m 6.59375,-55.796875 c 0,-3 -1.796875,-5.703125 -4.09375,-7.703125 -3.40625,-3 -6.796875,-3.5 -8.703125,-3.5 -2.90625,0 -13.296875,1.5 -13.296875,20.59375 C 9.703125,40.8125 21.296875,42 23.90625,42 28.5,42 32.203125,39.40625 34.5,35.796875 c 1.296875,-2.09375 1.296875,-2.390625 1.296875,-4.1875 z"
           id="CMR17-100" />
        <path
           d="m 30.90625,42.140625 c 0,1.8125 -0.109375,1.90625 -0.703125,1.90625 -0.40625,0 -0.5,-0.09375 -1.703125,-1.59375 -0.296875,-0.40625 -1.203125,-1.421875 -1.5,-1.8125 -3.203125,3.40625 -7.703125,3.40625 -9.40625,3.40625 C 6.5,44.046875 2.5,38.234375 2.5,32.4375 c 0,-9.03125 10.203125,-11.109375 13.09375,-11.734375 6.3125,-1.28125 8.5,-1.6875 10.609375,-3.5 1.296875,-1.1875 3.5,-3.390625 3.5,-6.984375 0,-4.21875 -2.40625,-9.625 -11.609375,-9.625 -8.6875,0 -11.796875,6.59375 -13.59375,15.359375 -0.296875,1.390625 -0.296875,1.5 -1.09375,1.5 -0.8125,0 -0.90625,-0.109375 -0.90625,-2.09375 v -14.375 c 0,-1.78125 0.09375,-1.890625 0.703125,-1.890625 0.5,0 0.59375,0.109375 1.09375,0.90625 C 4.90625,0.890625 6.40625,3.296875 7,4.3125 9,1.609375 12.5,-1 18.09375,-1 28,-1 33.296875,4.421875 33.296875,12.25 c 0,5.125 -2.703125,7.828125 -4,9.03125 -3,3.109375 -6.5,3.8125 -10.703125,4.609375 -5.5,1.21875 -12.5,2.625 -12.5,8.75 0,2.59375 1.40625,8.125 11.5,8.125 10.703125,0 11.3125,-10.046875 11.5,-13.265625 C 29.203125,29 29.703125,28.890625 30,28.890625 c 0.90625,0 0.90625,0.3125 0.90625,2.015625 z"
           id="CMR17-115" />
        <path
           d="M 43.59375,16.609375 C 40.90625,7.5 38.296875,2.796875 37.296875,1.15625 33.40625,-5.796875 31.296875,-6 27.90625,-6 c -1.703125,0 -8.8125,0 -14.703125,4.21875 -4.5,0 -8,-3.578125 -8,-4.71875 0,-0.90625 6.796875,-5.109375 16.09375,-5.109375 7.203125,0 19,3.84375 26.5,20.234375 2.609375,5.640625 4.296875,11.375 4.609375,12.578125 2,6.9375 4.09375,14.984375 4.09375,15.40625 0,0.59375 -0.203125,0.90625 -1.09375,0.90625 -0.90625,0 -2.609375,-0.5 -4.703125,-1.90625 C 48.40625,34.125 48.296875,33.625 47.59375,31.140625 46.59375,27.734375 40.703125,13 28.296875,13 18.59375,13 12.90625,20.875 12.90625,32.125 12.90625,39.796875 16,50.0625 21.796875,57.03125 24.5,60.21875 29.40625,65.5 40.703125,65.5 42.59375,65.5 45.5,65.203125 48,64.40625 c 1.09375,-0.3125 3.59375,-1.09375 3.59375,-4.296875 0,-3.375 -5.1875,-9.765625 -5.59375,-10.34375 -0.40625,-0.40625 -0.703125,-0.796875 -0.703125,-1.203125 0,-0.703125 0.5,-0.703125 1.109375,-0.703125 2.890625,0 6.1875,2.703125 8.890625,6.390625 0.796875,1.09375 4.796875,6.6875 4.796875,10.0625 0,4.09375 -3.09375,5.09375 -4.296875,5.484375 C 52.09375,71 48.703125,71 47.296875,71 24.703125,71 4.40625,51.265625 4.40625,27.84375 4.40625,17.765625 8.90625,7.5 21.796875,7.5 c 7.5,0 15.203125,3.796875 21.796875,9.109375 z"
           id="CMSY10-71" />
        <path
           d="m 30.59375,-24.390625 c 0,0.09375 0,0.296875 -0.296875,0.59375 -4.59375,4.671875 -16.890625,17.4375 -16.890625,48.5 0,31.0625 12.09375,43.71875 17,48.6875 0,0.109375 0.1875,0.3125 0.1875,0.609375 0,0.296875 -0.296875,0.5 -0.6875,0.5 -1.109375,0 -9.609375,-7.375 -14.5,-18.34375 C 10.40625,45.109375 9,34.359375 9,24.8125 9,17.625 9.703125,5.484375 15.703125,-7.359375 20.5,-17.734375 28.703125,-25 29.90625,-25 c 0.5,0 0.6875,0.203125 0.6875,0.609375 z"
           id="CMR17-40" />
        <path
           d="m 26.296875,24.703125 c 0,7.171875 -0.703125,19.3125 -6.703125,32.15625 -4.796875,10.375 -13,17.640625 -14.1875,17.640625 -0.3125,0 -0.703125,-0.109375 -0.703125,-0.609375 0,-0.1875 0.09375,-0.296875 0.203125,-0.5 4.796875,-4.984375 17,-17.640625 17,-48.640625 0,-31.109375 -12.109375,-43.765625 -17,-48.765625 C 4.796875,-24.203125 4.703125,-24.3125 4.703125,-24.5 c 0,-0.5 0.390625,-0.5 0.703125,-0.5 1.09375,0 9.59375,7.375 14.5,18.34375 5,11.046875 6.390625,21.796875 6.390625,31.359375 z"
           id="CMR17-41" />
        <path
           d="M 41.703125,61.09375 C 42.296875,63.5 42.5,64.390625 44,64.796875 44.796875,65 48.09375,65 50.203125,65 c 10,0 14.703125,-0.40625 14.703125,-8.21875 0,-1.515625 -0.40625,-5.296875 -1,-9.015625 L 63.796875,46.5625 c 0,-0.40625 0.40625,-1 1,-1 1,0 1,0.5 1.296875,2.09375 L 69,65.375 c 0.203125,0.921875 0.203125,1.125 0.203125,1.421875 0,1.09375 -0.609375,1.09375 -2.609375,1.09375 h -54.6875 c -2.3125,0 -2.40625,-0.09375 -3,-1.890625 L 2.796875,47.96875 C 2.703125,47.75 2.40625,46.65625 2.40625,46.5625 c 0,-0.5 0.390625,-1 1,-1 0.796875,0 1,0.390625 1.390625,1.6875 C 9,59.390625 11.09375,65 24.40625,65 h 6.6875 C 33.5,65 34.5,65 34.5,63.890625 c 0,-0.3125 0,-0.5 -0.5,-2.3125 L 20.59375,7.796875 c -1,-3.90625 -1.1875,-4.90625 -11.796875,-4.90625 -2.5,0 -3.203125,0 -3.203125,-1.890625 0,-1 1.109375,-1 1.609375,-1 2.5,0 5.09375,0 7.59375,0 H 30.40625 c 2.5,0 5.1875,0 7.6875,0 1.109375,0 2.109375,0 2.109375,1.890625 0,1 -0.703125,1 -3.296875,1 -9,0 -9,0.90625 -9,2.40625 0,0.109375 0,0.8125 0.390625,2.421875 z"
           id="CMMI12-84" />
        <path
           d="M 74.703125,69.109375 C 74.703125,70 74,70 73.796875,70 73.59375,70 73.203125,70 72.40625,69 L 65.5,60.65625 C 62,66.625 56.5,70 49,70 27.40625,70 5,48.25 5,24.921875 5,8.328125 16.703125,-2 31.296875,-2 c 8,0 15,3.375 20.796875,8.25 8.703125,7.234375 11.3125,16.890625 11.3125,17.671875 0,0.890625 -0.8125,0.890625 -1.109375,0.890625 -0.890625,0 -1,-0.59375 -1.203125,-1 C 56.5,8.34375 43,0.890625 33,0.890625 c -10.59375,0 -19.796875,6.75 -19.796875,20.84375 0,3.1875 1,20.453125 12.296875,33.453125 5.5,6.359375 14.90625,11.921875 24.40625,11.921875 11,0 15.890625,-9.03125 15.890625,-19.171875 0,-2.578125 -0.296875,-4.75 -0.296875,-5.15625 0,-0.890625 1,-0.890625 1.296875,-0.890625 1.109375,0 1.203125,0.09375 1.609375,1.875 z"
           id="CMMI12-67" />
        <path
           d="m 64.296875,31.515625 c 1.5,0 3,0 3,1.6875 C 67.296875,35 65.59375,35 63.90625,35 H 8 c -1.703125,0 -3.40625,0 -3.40625,-1.796875 0,-1.6875 1.5,-1.6875 3,-1.6875 z M 63.90625,14 c 1.6875,0 3.390625,0 3.390625,1.796875 0,1.6875 -1.5,1.6875 -3,1.6875 H 7.59375 c -1.5,0 -3,0 -3,-1.6875 C 4.59375,14 6.296875,14 8,14 Z"
           id="CMR17-61" />
        <path
           d="m 28.296875,61.90625 c 0,4.046875 2.609375,10.5 13.5,10.5 0.5,0.125 0.90625,0.59375 0.90625,1.3125 C 42.703125,75 41.90625,75 40.796875,75 c -10,0 -19.09375,-5.140625 -19.203125,-12.609375 V 39.40625 c 0,-3.9375 0,-7.171875 -4,-10.484375 C 14.09375,26 10.296875,26 8.09375,26 c -0.5,-0.109375 -0.890625,-0.59375 -0.890625,-1.3125 0,-1.1875 0.59375,-1.1875 1.59375,-1.1875 6.609375,0 11.40625,-3.59375 12.5,-8.5 0.296875,-1.09375 0.296875,-1.296875 0.296875,-4.90625 V -9.703125 c 0,-4.203125 0,-7.390625 4.8125,-11.203125 3.890625,-3 10.5,-4.09375 14.390625,-4.09375 1.109375,0 1.90625,0 1.90625,1.09375 0,1.203125 -0.609375,1.203125 -1.609375,1.203125 -6.296875,0 -11.1875,3.203125 -12.5,8.328125 -0.296875,0.890625 -0.296875,1.09375 -0.296875,4.703125 v 21.03125 c 0,4.625 -0.796875,6.328125 -4,9.53125 C 22.203125,23 19.296875,24 16.5,24.796875 24.703125,27.125 28.296875,31.78125 28.296875,37.640625 Z"
           id="CMSY10-102" />
        <path
           d="m 27,8.5 c 1.5,12.3125 1.5,21.3125 1.5,22.8125 0,7.09375 0,36.890625 -18.203125,36.890625 C 6.90625,68.203125 3.40625,65.40625 3.40625,64 c 0,-0.6875 0.5,-0.6875 1.890625,-0.796875 C 19.90625,61.90625 21.09375,39.03125 21.09375,27.75 c 0,-10.078125 -1.296875,-22.0625 -2.5,-28.75 -0.1875,-1.203125 -0.1875,-1.40625 -0.1875,-1.796875 0,-0.5 0,-1.703125 0.6875,-1.703125 1.109375,0 25.3125,18.46875 38,37.75 C 62.203125,41.03125 66,49.9375 66,56.625 66,65.109375 60.40625,68.203125 56.296875,68.203125 53.40625,68.203125 52,61.828125 52,60.515625 52,59 52.5,59 53.703125,59 60.40625,58.203125 61.59375,52.90625 61.59375,50.5 61.59375,42.40625 44.203125,21.90625 27,8.5 Z"
           id="CMSY10-86" />
        <path
           d="m 19.5,-0.484375 c 0,5.84375 -1.90625,10.15625 -6,10.15625 -3.203125,0 -4.796875,-2.59375 -4.796875,-4.78125 C 8.703125,2.6875 10.203125,0 13.59375,0 14.90625,0 16,0.40625 16.90625,1.296875 17.09375,1.5 17.203125,1.5 17.296875,1.5 17.5,1.5 17.5,0.078125 17.5,-0.421875 17.5,-3.75 16.90625,-10.296875 11.09375,-16.875 10,-18.078125 10,-18.28125 10,-18.484375 10,-19 10.5,-19.5 11,-19.5 c 0.796875,0 8.5,7.453125 8.5,19.015625 z"
           id="CMMI12-59" />
        <path
           d="m 51.5,-174.79687 c 0.203125,-0.10938 1.09375,-1.10938 1.203125,-1.10938 h 2.203125 c 0.296875,0 1.09375,0.10938 1.09375,1 0,0.40625 -0.203125,0.60938 -0.40625,0.90625 -3.59375,3.59375 -9,9.09375 -15.1875,20.09375 C 29.59375,-134.70312 25.59375,-110 25.59375,-86 c 0,44.40625 12.609375,70.5 30.109375,88.203125 C 56,2.5 56,2.796875 56,3 56,4 55.296875,4 54.09375,4 52.796875,4 52.59375,4 51.703125,3.203125 42.203125,-5 31.5,-18.90625 24.59375,-40 20.296875,-53.203125 18,-69.296875 18,-85.90625 c 0,-23.6875 4.296875,-50.5 20,-73.6875 2.703125,-3.90625 6.40625,-8 6.40625,-8.10937 1,-1.20313 2.390625,-2.79688 3.1875,-3.5 z"
           id="CMEX10-16" />
        <path
           d="m 27.703125,68.5 27.203125,-12.296875 1.1875,2.203125 -28.296875,16 -28.296875,-16 1.09375,-2.203125 z"
           id="CMEX10-98" />
        <path
           d="M 72,67.265625 H 6.09375 l -2,-23.5625 H 8.296875 C 9.203125,54.546875 10,63 24.40625,63 H 32.5 V 4.171875 H 17.40625 V 0 c 8,0 18.296875,0 21.6875,0 6.109375,0 13.703125,0 21.703125,0 V 4.171875 H 45.703125 V 63 h 8 C 68.09375,63 68.90625,54.640625 69.796875,43.703125 H 74 Z"
           id="CMBX12-84" />
        <path
           d="m 30.09375,11.875 c -0.5,-1.703125 -0.5,-1.890625 -1.890625,-3.796875 C 26,5.28125 21.59375,1 16.90625,1 12.796875,1 10.5,4.6875 10.5,10.578125 c 0,5.484375 3.09375,16.65625 5,20.859375 3.40625,6.984375 8.09375,10.578125 12,10.578125 6.59375,0 7.90625,-8.1875 7.90625,-8.984375 C 35.40625,32.9375 35.09375,31.625 35,31.4375 Z M 36.5,37.421875 C 35.40625,40.015625 32.703125,44 27.5,44 16.203125,44 4,29.4375 4,14.671875 4,4.796875 9.796875,-1 16.59375,-1 c 5.5,0 10.203125,4.296875 13,7.59375 1,-5.890625 5.703125,-7.59375 8.703125,-7.59375 3,0 5.40625,1.796875 7.203125,5.390625 1.59375,3.390625 3,9.484375 3,9.875 0,0.5 -0.40625,0.90625 -1,0.90625 -0.90625,0 -1,-0.5 -1.40625,-2 C 44.59375,7.28125 42.703125,1 38.59375,1 35.703125,1 35.5,3.59375 35.5,5.59375 c 0,2.296875 0.296875,3.390625 1.203125,7.28125 0.703125,2.5 1.203125,4.6875 2,7.578125 3.703125,14.96875 4.59375,18.5625 4.59375,19.15625 0,1.40625 -1.09375,2.5 -2.59375,2.5 -3.203125,0 -4,-3.484375 -4.203125,-4.6875 z"
           id="CMMI12-97" />
        <path
           d="m 23.09375,66.515625 c 0.109375,0.40625 0.3125,1 0.3125,1.484375 0,1 -1,1 -1.203125,1 -0.109375,0 -3.703125,-0.359375 -5.5,-0.609375 -1.703125,0 -3.203125,-0.296875 -5,-0.296875 C 9.296875,67.890625 8.59375,67.796875 8.59375,66 c 0,-1 1,-1 2,-1 5.109375,0 5.109375,-0.890625 5.109375,-1.875 0,-0.6875 -0.796875,-3.578125 -1.203125,-5.375 L 12.09375,48.203125 C 11.09375,44.234375 5.40625,21.671875 5,19.875 4.5,17.40625 4.5,15.703125 4.5,14.40625 4.5,4.28125 10.203125,-1 16.703125,-1 28.296875,-1 40.296875,13.875 40.296875,28.34375 40.296875,37.515625 35.09375,44 27.59375,44 22.40625,44 17.703125,39.71875 15.796875,37.71875 Z M 16.796875,1 C 13.59375,1 10.09375,3.390625 10.09375,11.171875 c 0,3.296875 0.3125,5.1875 2.109375,12.171875 0.296875,1.296875 1.890625,7.6875 2.296875,8.984375 0.203125,0.796875 6.09375,9.6875 12.90625,9.6875 4.390625,0 6.390625,-4.390625 6.390625,-9.578125 C 33.796875,27.640625 31,16.359375 28.5,11.171875 26,5.78125 21.40625,1 16.796875,1 Z"
           id="CMMI12-98" />
        <path
           d="m 22.796875,20 c 1.703125,-0.296875 4.40625,-0.890625 5,-1 1.296875,-0.375 5.796875,-1.96875 5.796875,-6.765625 0,-3.078125 -2.796875,-11.140625 -14.390625,-11.140625 -2.109375,0 -9.609375,0 -11.609375,5.71875 4,-0.5 6,2.609375 6,4.828125 0,2.109375 -1.390625,3.203125 -3.390625,3.203125 C 8,14.84375 5.09375,13.140625 5.09375,8.625 c 0,-5.921875 6,-9.625 14,-9.625 15.203125,0 19.703125,11.171875 19.703125,16.375 0,1.484375 0,4.28125 -3.203125,7.46875 -2.5,2.40625 -4.890625,2.90625 -10.296875,4 -2.703125,0.59375 -7,1.5 -7,5.984375 0,2 1.796875,9.1875 11.296875,9.1875 4.203125,0 8.3125,-1.5625 9.3125,-5.015625 -4.40625,0 -4.609375,-3.796875 -4.609375,-3.890625 0,-2.109375 1.90625,-2.703125 2.796875,-2.703125 1.40625,0 4.203125,1.078125 4.203125,5.234375 C 41.296875,39.765625 37.5,44 29.703125,44 16.59375,44 13.09375,33.75 13.09375,29.671875 13.09375,22.09375 20.5,20.5 22.796875,20 Z"
           id="CMMI12-115" />
        <path
           d="m 41.59375,-85.90625 c 0,28.703125 -6.6875,59.203125 -26.390625,81.703125 -1.40625,1.609375 -5.109375,5.5 -7.5,7.609375 C 7,4 6.796875,4 5.5,4 4.5,4 3.59375,4 3.59375,3 3.59375,2.59375 4,2.203125 4.203125,2 7.59375,-1.5 13,-7 19.203125,-18 30,-37.203125 34,-61.90625 34,-85.90625 c 0,-43.39062 -12,-69.89062 -30,-88.1875 -0.203125,-0.20312 -0.40625,-0.5 -0.40625,-0.8125 0,-1 0.90625,-1 1.90625,-1 1.296875,0 1.5,0 2.40625,0.8125 9.5,8.1875 20.1875,22.09375 27.09375,43.1875 4.40625,13.70312 6.59375,29.90625 6.59375,46 z"
           id="CMEX10-17" />
        <path
           d="m 21.59375,-12.0625 c 0,-4.015625 -2.59375,-10.4375 -13.5,-10.4375 -0.5,-0.125 -0.890625,-0.5625 -0.890625,-1.265625 0,-1.234375 1.09375,-1.234375 2,-1.234375 9.703125,0 19,4.890625 19.09375,12.46875 v 22.765625 c 0,3.890625 0,7.09375 4,10.375 3.5,2.890625 7.296875,2.890625 9.5,2.890625 0.5,0.109375 0.90625,0.59375 0.90625,1.3125 C 42.703125,26 42.09375,26 41.09375,26 c -6.59375,0 -11.390625,3.625 -12.5,8.59375 -0.296875,1.09375 -0.296875,1.296875 -0.296875,4.953125 v 20 c 0,4.25 0,7.46875 -4.796875,11.3125 C 19.5,73.984375 12.59375,75 9.203125,75 c -0.90625,0 -2,0 -2,-1.25 0,-1.15625 0.59375,-1.15625 1.59375,-1.15625 6.296875,0 11.203125,-3.234375 12.5,-8.375 0.296875,-0.90625 0.296875,-1.109375 0.296875,-4.734375 V 38.3125 c 0,-4.640625 0.8125,-6.359375 4,-9.578125 2.109375,-2.125 5,-3.140625 7.8125,-3.9375 -8.203125,-2.3125 -11.8125,-6.9375 -11.8125,-12.75 z"
           id="CMSY10-103" />
      </defs>
      <use
         transform="scale(0.996264)"
         xlink:href="#CMR17-83"
         id="use193" />
      <use
         transform="matrix(0.996264,0,0,0.996264,50.89537,0)"
         xlink:href="#CMR17-116"
         id="use194" />
      <use
         transform="matrix(0.996264,0,0,0.996264,86.176138,0)"
         xlink:href="#CMR17-114"
         id="use195" />
      <use
         transform="matrix(0.996264,0,0,0.996264,121.45691,0)"
         xlink:href="#CMR17-101"
         id="use196" />
      <use
         transform="matrix(0.996264,0,0,0.996264,161.94257,0)"
         xlink:href="#CMR17-110"
         id="use197" />
      <use
         transform="matrix(0.996264,0,0,0.996264,212.83794,0)"
         xlink:href="#CMR17-103"
         id="use198" />
      <use
         transform="matrix(0.996264,0,0,0.996264,258.52841,0)"
         xlink:href="#CMR17-116"
         id="use199" />
      <use
         transform="matrix(0.996264,0,0,0.996264,293.80918,0)"
         xlink:href="#CMR17-104"
         id="use200" />
      <use
         transform="matrix(0.996264,0,0,0.996264,374.78052,0)"
         xlink:href="#CMR17-111"
         id="use201" />
      <use
         transform="matrix(0.996264,0,0,0.996264,420.47099,0)"
         xlink:href="#CMR17-102"
         id="use202" />
      <use
         transform="matrix(0.996264,0,0,0.996264,478.02047,0)"
         xlink:href="#CMR17-116"
         id="use203" />
      <use
         transform="matrix(0.996264,0,0,0.996264,513.30124,0)"
         xlink:href="#CMR17-104"
         id="use204" />
      <use
         transform="matrix(0.996264,0,0,0.996264,564.19661,0)"
         xlink:href="#CMR17-101"
         id="use205" />
      <use
         transform="matrix(0.996264,0,0,0.996264,634.75824,0)"
         xlink:href="#CMR17-98"
         id="use206" />
      <use
         transform="matrix(0.996264,0,0,0.996264,685.65361,0)"
         xlink:href="#CMR17-114"
         id="use207" />
      <use
         transform="matrix(0.996264,0,0,0.996264,720.93438,0)"
         xlink:href="#CMR17-97"
         id="use208" />
      <use
         transform="matrix(0.996264,0,0,0.996264,766.62485,0)"
         xlink:href="#CMR17-105"
         id="use209" />
      <use
         transform="matrix(0.996264,0,0,0.996264,791.49591,0)"
         xlink:href="#CMR17-110"
         id="use210" />
      <use
         transform="matrix(0.996264,0,0,0.996264,872.46725,0)"
         xlink:href="#CMR17-104"
         id="use211" />
      <use
         transform="matrix(0.996264,0,0,0.996264,920.76016,0)"
         xlink:href="#CMR17-121"
         id="use212" />
      <use
         transform="matrix(0.996264,0,0,0.996264,969.05308,0)"
         xlink:href="#CMR17-112"
         id="use213" />
      <use
         transform="matrix(0.996264,0,0,0.996264,1022.5509,0)"
         xlink:href="#CMR17-101"
         id="use214" />
      <use
         transform="matrix(0.996264,0,0,0.996264,1063.0365,0)"
         xlink:href="#CMR17-114"
         id="use215" />
      <use
         transform="matrix(0.996264,0,0,0.996264,1098.3173,0)"
         xlink:href="#CMR17-103"
         id="use216" />
      <use
         transform="matrix(0.996264,0,0,0.996264,1144.0078,0)"
         xlink:href="#CMR17-114"
         id="use217" />
      <use
         transform="matrix(0.996264,0,0,0.996264,1179.2886,0)"
         xlink:href="#CMR17-97"
         id="use218" />
      <use
         transform="matrix(0.996264,0,0,0.996264,1224.979,0)"
         xlink:href="#CMR17-112"
         id="use219" />
      <use
         transform="matrix(0.996264,0,0,0.996264,1275.8744,0)"
         xlink:href="#CMR17-104"
         id="use220" />
      <use
         transform="matrix(0.996264,0,0,0.996264,1356.8457,0)"
         xlink:href="#CMR17-109"
         id="use221" />
      <use
         transform="matrix(0.996264,0,0,0.996264,1433.7653,0)"
         xlink:href="#CMR17-111"
         id="use222" />
      <use
         transform="matrix(0.996264,0,0,0.996264,1482.0582,0)"
         xlink:href="#CMR17-100"
         id="use223" />
      <use
         transform="matrix(0.996264,0,0,0.996264,1532.9536,0)"
         xlink:href="#CMR17-101"
         id="use224" />
      <use
         transform="matrix(0.996264,0,0,0.996264,1573.4393,0)"
         xlink:href="#CMR17-115"
         id="use225" />
      <use
         transform="matrix(0.996264,0,0,0.996264,1639.3166,0)"
         xlink:href="#CMSY10-71"
         id="use226" />
      <use
         transform="matrix(0.697382,0,0,0.697382,1704.4891,51.691943)"
         xlink:href="#CMR17-40"
         id="use227" />
      <use
         transform="matrix(0.697382,0,0,0.697382,1729.1855,51.691943)"
         xlink:href="#CMMI12-107"
         id="use228" />
      <use
         transform="matrix(0.697382,0,0,0.697382,1767.0408,51.691943)"
         xlink:href="#CMR17-41"
         id="use229" />
      <use
         transform="matrix(0.697382,0,0,0.697382,1698.5809,-29.278481)"
         xlink:href="#CMMI12-84"
         id="use230" />
      <use
         transform="matrix(0.697382,0,0,0.697382,1748.0872,-29.278481)"
         xlink:href="#CMMI12-67"
         id="use231" />
      <use
         transform="matrix(0.996264,0,0,0.996264,1830.1219,0)"
         xlink:href="#CMR17-61"
         id="use232" />
      <use
         transform="matrix(0.996264,0,0,0.996264,1929.5107,0)"
         xlink:href="#CMSY10-102"
         id="use233" />
      <use
         transform="matrix(0.996264,0,0,0.996264,1979.3241,0)"
         xlink:href="#CMSY10-86"
         id="use234" />
      <use
         transform="matrix(0.996264,0,0,0.996264,2048.5649,0)"
         xlink:href="#CMMI12-59"
         id="use235" />
      <use
         transform="matrix(0.996264,0,0,0.996264,2092.2665,110.58631)"
         xlink:href="#CMEX10-16"
         id="use236" />
      <use
         transform="matrix(0.996264,0,0,0.996264,2163.0659,25.460143)"
         xlink:href="#CMEX10-98"
         id="use237" />
      <use
         transform="matrix(0.996264,0,0,0.996264,2151.7658,0)"
         xlink:href="#CMBX12-84"
         id="use238" />
      <use
         transform="matrix(0.697382,0,0,0.697382,2229.7141,36.153639)"
         xlink:href="#CMMI12-97"
         id="use239" />
      <use
         transform="matrix(0.697382,0,0,0.697382,2265.5595,36.153639)"
         xlink:href="#CMMI12-98"
         id="use240" />
      <use
         transform="matrix(0.697382,0,0,0.697382,2294.5925,36.153639)"
         xlink:href="#CMMI12-115"
         id="use241" />
      <use
         transform="matrix(0.697382,0,0,0.697382,2229.7141,-24.62935)"
         xlink:href="#CMMI12-115"
         id="use242" />
      <use
         transform="matrix(0.996264,0,0,0.996264,2327.2555,110.58631)"
         xlink:href="#CMEX10-17"
         id="use243" />
      <use
         transform="matrix(0.697382,0,0,0.697382,2386.7548,87.644767)"
         xlink:href="#CMR17-40"
         id="use244" />
      <use
         transform="matrix(0.697382,0,0,0.697382,2411.4512,87.644767)"
         xlink:href="#CMMI12-107"
         id="use245" />
      <use
         transform="matrix(0.697382,0,0,0.697382,2449.3064,87.644767)"
         xlink:href="#CMR17-41"
         id="use246" />
      <use
         transform="matrix(0.996264,0,0,0.996264,2474.501,0)"
         xlink:href="#CMSY10-103"
         id="use247" />
    </g>
  </g>
  <defs
     id="defs247">
    <clipPath
       id="p8613f95611">
      <rect
         height="110.88"
         width="502.2"
         x="81"
         y="17.28"
         id="rect247" />
    </clipPath>
  </defs>
</svg>
